<?xml version="1.0" encoding="utf-8"?>
<!-- Generator: Adobe Illustrator 24.1.0, SVG Export Plug-In . SVG Version: 6.00 Build 0)  -->
<svg version="1.1" id="Calque_1" xmlns="http://www.w3.org/2000/svg" xmlns:xlink="http://www.w3.org/1999/xlink" x="0px" y="0px"
	 viewBox="0 0 612 792" style="enable-background:new 0 0 612 792;" xml:space="preserve">
<style type="text/css">
	.st0{fill:#FFFFFF;}
</style>
<g>
	<path class="st0" d="M176.55,252.41c-72.41,0-131.12,58.7-131.12,131.12c0,72.41,58.7,131.12,131.12,131.12
		c72.41,0,131.12-58.7,131.12-131.12C307.67,311.11,248.97,252.41,176.55,252.41z M91.05,344.18c5.67,3.57,10.99,6.92,16.97,10.69
		c-2.25,3.88-4.38,7.53-6.63,11.41c-6.54-2.16-12.86-4.25-20.11-6.64C84.72,354.2,87.77,349.37,91.05,344.18z M105.91,416.66
		c-2.41,1.38-4.48,3.32-6.8,4.89c-6.56,4.43-6.66,4.47-10.99-2.12c-9.75-14.84-13.35-30.98-9.79-48.51c0.3-1.5,1.18-2.88,1.87-4.5
		c6.62,1.53,12.41,2.86,18.73,4.32c0,1.85,0.41,3.93-0.07,5.78c-3.25,12.7,1.18,23.64,8.07,33.75
		C109.14,413.49,109.16,414.81,105.91,416.66z M112.04,401.24c-7.4-12.67-5.46-31.16,3.62-41c10.15-11,25.05-14.66,36.4-10.57
		c-2.68,5.02-5.21,10.15-8.15,15.03c-0.83,1.38-2.74,2.42-4.37,2.95c-9.53,3.06-13.52,7.55-13.6,15.71
		c-0.08,8.31,3.98,13.12,12.85,16.65c2.51,1,4.55,3.71,6.26,6.04c2.58,3.51,4.67,7.37,7.26,11.55
		C133.8,422.97,118.3,411.95,112.04,401.24z M208.9,419.04c-9.1,7.2-23.66,7.9-35.95,2.54c-3.07-1.34-6-3.06-8.67-5.15
		c-17.3-13.56-20.75-40.37-6.6-58.3c11.28-14.29,35.23-21.02,53.42-8.14c-3.63,4.87-7.27,9.73-10.9,14.6c0,0,0,0,0,0c0,0,0,0,0,0
		c-7.9-2.86-15.26-2.92-20.88-0.39c-1.02,0.46-1.99,1.01-2.89,1.64c-1.35,0.95-2.55,2.08-3.59,3.41
		c-6.62,8.48-7.15,18.75-1.39,27.42c5.96,8.98,14.46,10.96,29.25,6.67c1.52,2.43,2.95,5.06,4.72,7.42c1.69,2.26,3.75,4.24,5.64,6.35
		C210.38,417.79,209.66,418.44,208.9,419.04z M240.53,419.13c-18.25,1.3-35.54-16.28-35.26-35.62c0.25-17.73,15.31-35.54,35.7-35.05
		c20.47,0.5,34.86,15.66,35.23,35.43C276.58,403.9,258.62,420.46,240.53,419.13z"/>
	<path class="st0" d="M241.59,367.79c-10.4-0.88-17.07,7.31-17.7,16.53c-0.56,8.24,8.26,16.36,16.85,16.48
		c8.87,0.12,17.51-8.15,17.19-16.71C257.54,373.85,249.18,366.91,241.59,367.79z"/>
</g>
<g>
	<path class="st0" d="M347.83,312.49c2.72,0,5.1,0.44,7.1,1.32c2.01,0.88,3.67,2.07,4.99,3.59c1.31,1.52,2.28,3.31,2.89,5.37
		c0.62,2.06,0.93,4.3,0.93,6.72c0,5.71-1.53,10-4.6,12.86c-3.07,2.87-7.56,4.29-13.48,4.29h-5.02v21.01h-14.37v-55.15H347.83z
		 M343.35,336.29c1.8,0,3.18-0.54,4.12-1.62c0.96-1.09,1.43-2.79,1.43-5.1c0-4.48-1.86-6.72-5.56-6.72h-2.71v13.44H343.35z"/>
	<path class="st0" d="M387.45,365.4c-0.1-0.77-0.21-1.59-0.31-2.47h-0.16c-0.77,1.86-1.99,3.24-3.67,4.17
		c-1.68,0.93-3.59,1.39-5.76,1.39c-2.11,0-3.9-0.27-5.37-0.81c-1.47-0.53-2.67-1.34-3.59-2.43c-0.93-1.08-1.6-2.37-2.01-3.86
		c-0.41-1.49-0.62-3.14-0.62-4.94c0-1.96,0.2-3.66,0.58-5.1c0.39-1.43,1.02-2.69,1.9-3.74c0.88-1.06,2.06-1.96,3.56-2.7
		c1.49-0.74,3.34-1.38,5.56-1.9l5.49-1.31c1.49-0.36,2.54-0.89,3.17-1.58c0.61-0.7,0.92-1.69,0.92-2.98c0-2.58-1.19-3.87-3.56-3.87
		c-1.33,0-2.31,0.38-2.93,1.12c-0.61,0.76-0.96,2.23-1,4.44h-12.06c0-3.03,0.54-5.47,1.62-7.3c1.09-1.82,2.42-3.24,4.02-4.24
		c1.59-1.01,3.32-1.68,5.18-2.01c1.84-0.33,3.58-0.5,5.17-0.5c2.42,0,4.64,0.19,6.69,0.58c2.03,0.39,3.78,1.08,5.24,2.09
		c1.47,1,2.6,2.37,3.4,4.09c0.8,1.72,1.2,3.96,1.2,6.68v20.4c0,1.96,0.08,3.68,0.23,5.17c0.16,1.5,0.51,2.79,1.08,3.87h-13.43
		C387.72,366.92,387.55,366.17,387.45,365.4z M386.14,357.67c0.67-1.13,1-2.86,1-5.18v-5.01h-0.16c-0.41,0.57-1.04,0.91-1.89,1.03
		c-0.86,0.13-1.79,0.43-2.82,0.89c-1.08,0.52-1.82,1.2-2.23,2.06c-0.42,0.84-0.62,1.97-0.62,3.36c0,1.39,0.31,2.5,0.92,3.32
		c0.62,0.82,1.44,1.23,2.48,1.23C384.36,359.37,385.46,358.81,386.14,357.67z"/>
	<path class="st0" d="M419.35,325.85v6.64h0.16c0.78-2.52,2.01-4.44,3.71-5.76c1.7-1.31,3.58-1.97,5.63-1.97h2.24v12.98
		c-0.62-0.11-1.21-0.18-1.78-0.23c-0.57-0.06-1.13-0.08-1.7-0.08c-2.48,0-4.39,0.54-5.76,1.62c-1.37,1.08-2.04,3.01-2.04,5.79v22.79
		h-13.9v-41.79H419.35z"/>
	<path class="st0" d="M435.49,325.85v-12.28h13.9v12.28h5.49v9.34h-5.49v19.93c0,1.18,0.28,2.02,0.81,2.51
		c0.54,0.49,1.38,0.73,2.51,0.73h2.17v9.27c-1.29,0-2.58,0.03-3.87,0.11c-1.29,0.08-2.52,0.12-3.7,0.12c-2.11,0-3.92-0.09-5.41-0.27
		c-1.49-0.19-2.72-0.63-3.67-1.36c-0.96-0.72-1.66-1.79-2.09-3.21c-0.43-1.41-0.66-3.28-0.66-5.6V335.2h-4.63v-9.34H435.49z"/>
	<path class="st0" d="M511.61,354.82c-0.39,2.62-1.2,4.96-2.43,6.99c-1.24,2.03-3.03,3.66-5.37,4.87c-2.34,1.21-5.48,1.81-9.39,1.81
		c-4.07,0-7.29-0.54-9.66-1.66c-2.37-1.11-4.14-2.66-5.33-4.63c-1.18-1.98-1.94-4.3-2.28-6.96c-0.33-2.64-0.5-5.49-0.5-8.53
		c0-2.72,0.19-5.41,0.58-8.03c0.39-2.62,1.2-4.97,2.43-7.02c1.23-2.07,3.02-3.72,5.37-4.99c2.34-1.26,5.48-1.89,9.39-1.89
		c4.07,0,7.29,0.58,9.66,1.73c2.37,1.16,4.14,2.74,5.33,4.76c1.18,2,1.93,4.33,2.28,6.99c0.33,2.66,0.5,5.5,0.5,8.53
		C512.19,349.52,511.99,352.2,511.61,354.82z M490.71,353.24c0.1,1.67,0.31,3,0.62,3.98c0.31,0.98,0.71,1.64,1.2,2
		c0.49,0.37,1.11,0.54,1.89,0.54c0.77,0,1.41-0.18,1.93-0.54c0.51-0.36,0.91-1.02,1.19-2c0.29-0.98,0.48-2.31,0.59-3.98
		c0.1-1.68,0.16-3.83,0.16-6.46s-0.06-4.79-0.16-6.49c-0.11-1.7-0.3-3.03-0.59-4.01c-0.28-0.98-0.68-1.66-1.19-2.01
		c-0.52-0.37-1.17-0.54-1.93-0.54c-0.78,0-1.4,0.18-1.89,0.54c-0.49,0.36-0.89,1.03-1.2,2.01c-0.31,0.98-0.52,2.31-0.62,4.01
		s-0.16,3.87-0.16,6.49S490.61,351.56,490.71,353.24z"/>
	<path class="st0" d="M513.73,335.2v-9.34h4.79v-3.01c0-2.11,0.22-3.89,0.66-5.33c0.43-1.43,1.16-2.61,2.17-3.51
		c1-0.9,2.32-1.56,3.98-1.97c1.64-0.41,3.68-0.62,6.1-0.62c1.03,0,2.12,0.04,3.28,0.12c1.17,0.08,2.28,0.19,3.37,0.34v8.72
		c-0.37-0.1-0.71-0.17-1.04-0.19s-0.76-0.03-1.28-0.03c-0.88,0-1.64,0.22-2.31,0.69c-0.68,0.47-1.01,1.21-1.01,2.24v2.54h5.64v9.34
		h-5.64v32.44h-13.9V335.2H513.73z"/>
	<path class="st0" d="M347.9,415.53c-0.62-1.13-1.62-1.7-3.01-1.7c-1.09,0-1.94,0.29-2.59,0.86c-0.64,0.57-1.13,1.57-1.47,3.01
		c-0.34,1.43-0.56,3.38-0.66,5.83c-0.11,2.44-0.16,5.52-0.16,9.22c0,3.71,0.04,6.79,0.16,9.23c0.1,2.44,0.31,4.39,0.66,5.83
		c0.33,1.44,0.82,2.44,1.47,3.01c0.64,0.57,1.5,0.84,2.59,0.84c0.87,0,1.59-0.21,2.16-0.66c0.57-0.43,1.01-1.17,1.31-2.2
		c0.31-1.02,0.53-2.4,0.66-4.13c0.13-1.72,0.2-3.9,0.2-6.52h13.9v4.09c0,3.87-0.51,7.03-1.54,9.5c-1.03,2.48-2.39,4.42-4.09,5.83
		c-1.7,1.42-3.64,2.37-5.83,2.86s-4.44,0.73-6.76,0.73c-4.02,0-7.32-0.49-9.89-1.47c-2.58-0.98-4.59-2.61-6.02-4.9
		c-1.44-2.29-2.43-5.26-2.98-8.88c-0.54-3.63-0.81-8.02-0.81-13.18c0-5.24,0.32-9.7,0.97-13.36c0.64-3.66,1.73-6.62,3.28-8.89
		s3.58-3.9,6.1-4.9c2.52-1.01,5.64-1.51,9.36-1.51c3.24,0,5.99,0.41,8.26,1.23c2.27,0.83,4.11,2,5.52,3.52
		c1.42,1.51,2.46,3.34,3.1,5.48c0.63,2.14,0.96,4.54,0.96,7.22v3.48h-13.9v-3.09C348.83,418.79,348.51,416.66,347.9,415.53z"/>
	<path class="st0" d="M401.39,447.5c-0.39,2.62-1.2,4.96-2.43,6.99c-1.24,2.03-3.03,3.66-5.37,4.87c-2.34,1.21-5.48,1.81-9.39,1.81
		c-4.07,0-7.29-0.54-9.66-1.66c-2.37-1.11-4.14-2.66-5.33-4.63c-1.18-1.98-1.94-4.3-2.28-6.96c-0.33-2.64-0.5-5.49-0.5-8.53
		c0-2.72,0.19-5.41,0.58-8.03c0.39-2.62,1.2-4.97,2.43-7.02c1.23-2.07,3.02-3.72,5.37-4.99c2.34-1.26,5.48-1.89,9.39-1.89
		c4.07,0,7.29,0.58,9.66,1.73s4.14,2.74,5.33,4.76c1.18,2,1.93,4.33,2.28,6.99c0.33,2.66,0.5,5.5,0.5,8.53
		C401.97,442.2,401.77,444.88,401.39,447.5z M380.49,445.93c0.1,1.67,0.31,3,0.62,3.98c0.31,0.98,0.71,1.64,1.2,2
		c0.49,0.37,1.11,0.54,1.89,0.54c0.77,0,1.41-0.18,1.93-0.54c0.51-0.36,0.91-1.02,1.19-2c0.29-0.98,0.48-2.31,0.59-3.98
		c0.1-1.68,0.16-3.83,0.16-6.46s-0.06-4.79-0.16-6.49c-0.11-1.7-0.3-3.03-0.59-4.01c-0.28-0.98-0.68-1.66-1.19-2.01
		c-0.52-0.37-1.17-0.54-1.93-0.54c-0.78,0-1.4,0.18-1.89,0.54c-0.49,0.36-0.89,1.03-1.2,2.01c-0.31,0.98-0.52,2.31-0.62,4.01
		c-0.1,1.7-0.16,3.87-0.16,6.49S380.39,444.25,380.49,445.93z"/>
	<path class="st0" d="M419.35,418.54v6.64h0.16c0.78-2.52,2.01-4.44,3.71-5.76c1.7-1.31,3.58-1.97,5.63-1.97h2.24v12.98
		c-0.62-0.11-1.21-0.18-1.78-0.23c-0.57-0.06-1.13-0.08-1.7-0.08c-2.48,0-4.39,0.54-5.76,1.62c-1.37,1.08-2.04,3.01-2.04,5.79v22.79
		h-13.9v-41.79H419.35z"/>
	<path class="st0" d="M467.86,405.17v55.15h-13.44v-5.71h-0.16c-0.88,2.31-2.06,3.99-3.56,5.01c-1.49,1.03-3.47,1.54-5.94,1.54
		c-4.63,0-7.88-1.82-9.73-5.48c-1.86-3.66-2.78-9.38-2.78-17.14c0-3.97,0.31-7.29,0.92-9.97c0.62-2.68,1.49-4.84,2.59-6.49
		c1.11-1.64,2.47-2.83,4.06-3.56c1.6-0.72,3.36-1.08,5.26-1.08c1.96,0,3.72,0.42,5.29,1.28c1.58,0.84,2.72,2.36,3.44,4.51h0.14
		v-18.08H467.86z M446.3,445.04c0.1,1.49,0.3,2.69,0.58,3.59c0.29,0.9,0.69,1.53,1.2,1.89c0.51,0.37,1.19,0.54,2.01,0.54
		c0.77,0,1.41-0.18,1.93-0.54c0.51-0.36,0.91-0.99,1.19-1.89c0.29-0.9,0.48-2.1,0.59-3.59c0.1-1.5,0.14-3.36,0.14-5.57
		c0-2.27-0.04-4.14-0.14-5.63c-0.11-1.5-0.3-2.7-0.59-3.6c-0.28-0.9-0.68-1.53-1.19-1.89c-0.52-0.36-1.17-0.54-1.93-0.54
		c-0.82,0-1.5,0.19-2.01,0.54c-0.51,0.36-0.91,0.99-1.2,1.89c-0.28,0.9-0.48,2.1-0.58,3.6c-0.1,1.49-0.16,3.37-0.16,5.63
		C446.14,441.68,446.2,443.54,446.3,445.04z"/>
	<path class="st0" d="M493.42,458.08c-0.1-0.77-0.21-1.59-0.31-2.47h-0.16c-0.77,1.86-1.99,3.24-3.67,4.17
		c-1.68,0.93-3.59,1.39-5.76,1.39c-2.11,0-3.9-0.27-5.37-0.81c-1.47-0.53-2.67-1.34-3.59-2.43c-0.93-1.08-1.6-2.37-2.01-3.86
		c-0.41-1.49-0.62-3.14-0.62-4.94c0-1.96,0.2-3.66,0.58-5.1c0.39-1.43,1.02-2.69,1.9-3.74c0.88-1.06,2.06-1.96,3.56-2.7
		c1.49-0.74,3.34-1.38,5.56-1.9l5.49-1.31c1.49-0.36,2.54-0.89,3.17-1.58c0.61-0.7,0.92-1.69,0.92-2.98c0-2.58-1.19-3.87-3.56-3.87
		c-1.33,0-2.31,0.38-2.93,1.12c-0.61,0.76-0.96,2.23-1,4.44h-12.06c0-3.03,0.54-5.47,1.62-7.3c1.09-1.82,2.42-3.24,4.02-4.24
		c1.59-1.01,3.32-1.68,5.18-2.01c1.84-0.33,3.58-0.5,5.17-0.5c2.42,0,4.64,0.19,6.69,0.58c2.03,0.39,3.78,1.08,5.24,2.09
		c1.47,1,2.6,2.37,3.4,4.09c0.8,1.72,1.2,3.96,1.2,6.68v20.4c0,1.96,0.08,3.68,0.23,5.17c0.16,1.5,0.51,2.79,1.08,3.87h-13.43
		C493.7,459.6,493.52,458.86,493.42,458.08z M492.11,450.36c0.67-1.13,1-2.86,1-5.18v-5.01h-0.16c-0.41,0.57-1.04,0.91-1.89,1.03
		c-0.86,0.13-1.79,0.43-2.82,0.89c-1.08,0.52-1.82,1.2-2.23,2.06c-0.42,0.84-0.62,1.97-0.62,3.36c0,1.39,0.31,2.5,0.92,3.32
		c0.62,0.82,1.44,1.23,2.48,1.23C490.33,452.06,491.43,451.49,492.11,450.36z"/>
	<path class="st0" d="M526.39,405.17v10.36h-13.9v-10.36H526.39z M526.39,418.54v41.79h-13.9v-41.79H526.39z"/>
	<path class="st0" d="M566.56,405.17v55.15h-13.44v-5.71h-0.16c-0.88,2.31-2.06,3.99-3.56,5.01c-1.49,1.03-3.47,1.54-5.94,1.54
		c-4.63,0-7.88-1.82-9.73-5.48c-1.86-3.66-2.78-9.38-2.78-17.14c0-3.97,0.31-7.29,0.92-9.97c0.62-2.68,1.49-4.84,2.59-6.49
		c1.11-1.64,2.47-2.83,4.06-3.56c1.6-0.72,3.36-1.08,5.26-1.08c1.96,0,3.72,0.42,5.29,1.28c1.58,0.84,2.72,2.36,3.44,4.51h0.14
		v-18.08H566.56z M545.01,445.04c0.1,1.49,0.3,2.69,0.58,3.59c0.29,0.9,0.69,1.53,1.2,1.89c0.51,0.37,1.19,0.54,2.01,0.54
		c0.77,0,1.41-0.18,1.93-0.54c0.51-0.36,0.91-0.99,1.19-1.89c0.29-0.9,0.48-2.1,0.59-3.59c0.1-1.5,0.14-3.36,0.14-5.57
		c0-2.27-0.04-4.14-0.14-5.63c-0.11-1.5-0.3-2.7-0.59-3.6c-0.28-0.9-0.68-1.53-1.19-1.89c-0.52-0.36-1.17-0.54-1.93-0.54
		c-0.82,0-1.5,0.19-2.01,0.54c-0.51,0.36-0.91,0.99-1.2,1.89c-0.28,0.9-0.48,2.1-0.58,3.6c-0.1,1.49-0.16,3.37-0.16,5.63
		C544.85,441.68,544.91,443.54,545.01,445.04z"/>
</g>
</svg>
