<?xml version="1.0" encoding="utf-8"?>
<!-- Generator: Adobe Illustrator 24.1.0, SVG Export Plug-In . SVG Version: 6.00 Build 0)  -->
<svg version="1.1" id="Calque_1" xmlns="http://www.w3.org/2000/svg" xmlns:xlink="http://www.w3.org/1999/xlink" x="0px" y="0px"
	 viewBox="0 0 612 792" style="enable-background:new 0 0 612 792;" xml:space="preserve">
<style type="text/css">
	.st0{fill:#FFFFFF;stroke:#020203;stroke-miterlimit:10;}
	.st1{fill:#020203;}
	.st2{fill:#FFFFFF;}
</style>
<g>
	<path class="st0" d="M21.46,681.17c0-190.11,0-380.22,0-570.34c1.18,0.05,2.36,0.15,3.55,0.15c187.35,0.01,374.7,0.01,562.04,0.01
		c1.07,0,2.14,0,3.44,0c0,1.56,0,2.73,0,3.9c0,136.52-0.01,273.04-0.01,409.55c0,51.2-0.02,102.41,0.05,153.61
		c0,2.35-0.51,3.14-3,3.07c-6.25-0.19-12.51-0.05-18.76-0.05c-181.17,0-362.34,0-543.51,0C23.99,681.08,22.73,681.14,21.46,681.17z
		 M421.63,560.23c-1.24-1.01-2.55-2.15-3.93-3.19c-7.27-5.47-15.67-6.31-24.14-4.83c-11.92,2.08-19.12,10.1-23.45,20.93
		c-3.95,9.88-4.14,20.18-2.72,30.53c0.98,7.13,3.53,13.76,8.33,19.29c6.82,7.84,15.66,10.77,25.85,10.41
		c7.34-0.25,13.34-2.88,17.56-9.06c0.31-0.45,0.71-0.85,1.53-1.8c-0.26,5.04-0.26,9.4-0.77,13.7c-0.66,5.48-3.21,9.97-8.98,11.21
		c-3.56,0.76-7.37,0.84-11.02,0.57c-4.3-0.32-8.21-1.78-9.73-6.6c-0.13-0.4-1.48-0.68-2.21-0.58c-3.82,0.52-7.62,1.16-11.43,1.81
		c-2.53,0.43-5.04,0.93-7.71,1.42c0.31,1.17,0.46,2.02,0.75,2.82c2.75,7.78,8.56,12.48,16.11,14.89c13.08,4.17,26.18,3.56,38.94-1.4
		c7.59-2.95,12.73-8.55,14.82-16.47c1-3.77,1.63-7.75,1.65-11.64c0.14-25.4,0.07-50.8,0.07-76.2c0-0.84,0-1.69,0-2.62
		c-6.26,0-12.22,0-18.24,0C422.44,555.98,421.99,558.36,421.63,560.23z M131.11,593.47c-0.23-2.99-0.29-6-0.73-8.95
		c-1.59-10.48-5.99-19.45-14.74-25.81c-9.25-6.73-19.75-8.51-30.84-6.85c-15.73,2.35-26.08,11.17-30.76,26.45
		c-2.48,8.1-2.52,16.39-1.29,24.62c1.85,12.39,7.79,22.29,19.16,28.29c8.38,4.42,17.4,5.41,26.69,4.02
		c9.77-1.46,18.02-5.76,24.07-13.7C128.97,613.27,131.13,603.7,131.11,593.47z M213.19,576.07c5.64-6.61,12.56-9.55,20.93-9.2
		c7.87,0.33,12.06,5.58,10.13,12.84c-1.33,0.21-2.65,0.46-3.98,0.62c-9.34,1.14-18.51,3.01-27.21,6.69
		c-10.31,4.36-19.16,11.55-18.32,25.8c0.6,10.18,6.41,18.03,15.94,20.56c6.49,1.72,13.05,1.45,19.4-0.37
		c4.95-1.42,9.67-3.61,14.57-5.49c0.37,1.29,0.78,2.98,1.37,4.6c0.19,0.52,0.87,1.24,1.33,1.24c5.91,0.08,11.82,0.06,18.01,0.06
		c0-1.21,0-2.13,0-3.06c0-17.96-0.18-35.92,0.06-53.88c0.17-12.7-7.58-19.34-16.01-22.27c-6.63-2.3-13.46-2.6-20.34-2.31
		c-8.04,0.34-15.56,2.47-22.15,7.24c-3.19,2.31-6.07,4.96-8.24,8.64C203.59,570.57,208.3,573.26,213.19,576.07z M474.33,596.79
		c1.31,0,2.24,0,3.17,0c15.6,0,31.19-0.05,46.79,0.05c2.34,0.02,3.12-0.73,2.89-2.96c-0.53-5.08-0.47-10.29-1.57-15.24
		c-2.7-12.24-9.65-21.14-21.95-25.12c-5.61-1.81-11.4-2.19-17.3-1.71c-12.69,1.04-22.7,6.5-28.26,18.14
		c-6.71,14.05-6.74,28.72-1.57,43.24c3.78,10.6,11.5,17.27,22.42,20.29c5.59,1.55,11.27,1.6,16.93,1.22
		c7.91-0.53,15.37-2.7,21.8-7.62c3.47-2.66,6.47-5.74,8.55-9.87c-4.15-2.32-8.14-4.56-12.13-6.78c-3.5-1.95-3.58-2-6.1,1.19
		c-6.68,8.45-19.41,9.05-26.29,3.97C475.52,611.03,474.65,604.23,474.33,596.79z M302.46,633.24c0.07-1.27,0.18-2.43,0.18-3.6
		c0.01-16.94-0.01-33.87,0.04-50.81c0-1.1,0.16-2.63,0.86-3.22c4.39-3.7,9.24-6.66,15-7.72c7.07-1.31,11.58,1.48,12.5,7.77
		c0.33,2.26,0.48,4.56,0.48,6.85c0.05,15.99,0.03,31.97,0.04,47.96c0,0.91,0,1.82,0,2.78c7.27,0,14.14,0,21.23,0
		c0.08-1.17,0.21-2.25,0.21-3.33c0.01-16.94,0.04-33.87-0.02-50.81c-0.01-3.07-0.21-6.17-0.73-9.19c-1.6-9.21-6.84-15.3-16.09-17.45
		c-7.51-1.75-14.96-1.2-21.98,2.01c-4.5,2.06-8.7,4.74-13.23,7.24c-0.42-1.88-1.14-3.9-1.27-5.96c-0.16-2.59-1.52-2.68-3.5-2.37
		c-4.12,0.65-8.25,1.32-12.39,1.73c-2.03,0.2-2.63,0.92-2.62,2.94c0.06,24.22,0.04,48.43,0.05,72.65c0,0.83,0.09,1.66,0.13,2.53
		C288.51,633.24,295.38,633.24,302.46,633.24z M144.87,553.31c0,26.78,0,53.31,0,79.93c7.31,0,14.38,0,21.67,0c0-1.11,0-2.05,0-2.98
		c0-15.67,0.08-31.34-0.06-47.01c-0.03-3.38,1.4-5.57,3.99-7.26c3.39-2.21,7.23-3.05,11.19-3.42c2.64-0.25,5.29-0.44,8.12-0.67
		c0-6.38,0.04-12.54-0.09-18.69c-0.01-0.46-1.22-1.27-1.9-1.3c-7.31-0.33-13.57,2.38-19.16,6.88c-1.09,0.87-2.11,1.82-3.53,3.05
		c0-2.55,0.1-4.66-0.06-6.75c-0.05-0.62-0.8-1.69-1.25-1.7C157.56,553.27,151.32,553.31,144.87,553.31z M569.45,523.5
		c-0.77-0.07-1.16-0.13-1.54-0.15c-5.63-0.18-5.64-0.18-7.66,5.05c-1.75,4.52-3.48,9.04-5.35,13.91c-0.36-0.76-0.55-1.1-0.69-1.45
		c-2.05-5.21-4.06-10.43-6.16-15.61c-0.29-0.71-0.93-1.73-1.5-1.79c-2.08-0.22-4.19-0.09-6.24-0.09c0,9.14,0,17.88,0,26.59
		c4.8,0.77,4.85,0.74,4.85-3.86c0-5,0-10,0-15c2.69,5.64,4.93,11.35,7.15,17.06c0.44,1.13,0.77,2.13,2.39,2.12
		c1.55-0.01,2.01-0.82,2.45-2.02c1.06-2.88,2.2-5.74,3.34-8.59c1.19-2.99,2.42-5.97,3.63-8.96c0.3,5.89,0.39,11.67,0.26,17.44
		c-0.05,2.27,1.25,2.04,2.73,2.12c1.64,0.09,2.51-0.25,2.4-2.17c-0.15-2.68-0.04-5.38-0.04-8.07
		C569.45,534.59,569.45,529.14,569.45,523.5z M527.26,549.87c0-7.46,0-14.86,0-22.49c2.77,0,5.27,0,7.82,0c0-1.45,0-2.65,0-3.81
		c-7.11,0-14.02,0-20.87,0c0,1.38,0,2.52,0,3.92c2.67,0,5.16,0,7.91,0c0,1.1,0,1.95,0,2.8c0,5.38,0,10.76,0,16.14
		c0,4.09,0,4.09,4.05,3.77C526.39,550.18,526.61,550.07,527.26,549.87z"/>
	<path class="st1" d="M421.63,560.23c0.36-1.88,0.81-4.25,1.3-6.82c6.02,0,11.97,0,18.24,0c0,0.93,0,1.77,0,2.62
		c0,25.4,0.07,50.8-0.07,76.2c-0.02,3.89-0.65,7.87-1.65,11.64c-2.09,7.92-7.24,13.52-14.82,16.47c-12.76,4.96-25.86,5.57-38.94,1.4
		c-7.55-2.41-13.36-7.1-16.11-14.89c-0.28-0.8-0.44-1.65-0.75-2.82c2.67-0.5,5.19-0.99,7.71-1.42c3.8-0.64,7.61-1.28,11.43-1.81
		c0.72-0.1,2.08,0.18,2.21,0.58c1.51,4.82,5.42,6.28,9.73,6.6c3.65,0.27,7.46,0.2,11.02-0.57c5.77-1.24,8.32-5.73,8.98-11.21
		c0.52-4.3,0.51-8.66,0.77-13.7c-0.82,0.96-1.22,1.35-1.53,1.8c-4.22,6.19-10.23,8.81-17.56,9.06
		c-10.19,0.35-19.03-2.57-25.85-10.41c-4.81-5.52-7.36-12.15-8.33-19.29c-1.42-10.34-1.23-20.65,2.72-30.53
		c4.33-10.83,11.53-18.85,23.45-20.93c8.48-1.48,16.88-0.65,24.14,4.83C419.08,558.09,420.39,559.23,421.63,560.23z M421.11,590.57
		c-0.22-0.04-0.45-0.09-0.67-0.13c0.01-6.49-1.04-11.25-3.37-15.28c-3.75-6.51-11.1-9.56-17.83-7.32
		c-5.01,1.67-7.91,5.44-9.38,10.26c-2.84,9.31-2.5,18.69,0.26,27.95c1.25,4.19,3.86,7.67,8.24,8.83c8.15,2.16,16.46,0.27,19.63-9.14
		C419.62,600.88,420.1,595.64,421.11,590.57z"/>
	<path class="st1" d="M131.11,593.47c0.02,10.23-2.14,19.79-8.44,28.06c-6.05,7.94-14.3,12.24-24.07,13.7
		c-9.29,1.39-18.31,0.4-26.69-4.02c-11.37-6-17.31-15.9-19.16-28.29c-1.23-8.23-1.19-16.53,1.29-24.62
		c4.68-15.28,15.03-24.09,30.76-26.45c11.1-1.66,21.59,0.11,30.84,6.85c8.75,6.37,13.15,15.34,14.74,25.81
		C130.82,587.47,130.88,590.49,131.11,593.47z M72.78,593.33c0.96,4.59,1.46,9.01,2.84,13.13c2.42,7.19,7.94,10.88,15.21,10.92
		c8.46,0.05,13.81-3.25,16.56-10.74c3.2-8.73,3.18-17.62-0.06-26.35c-2.57-6.91-7.98-10.42-15.01-10.62
		c-9.37-0.26-14.57,4.54-16.52,10.45C74.41,584.42,73.76,588.96,72.78,593.33z"/>
	<path class="st1" d="M213.19,576.07c-4.9-2.8-9.6-5.5-14.51-8.31c2.17-3.68,5.06-6.33,8.24-8.64c6.59-4.78,14.12-6.9,22.15-7.24
		c6.88-0.29,13.71,0.01,20.34,2.31c8.43,2.93,16.18,9.57,16.01,22.27c-0.25,17.96-0.06,35.92-0.06,53.88c0,0.93,0,1.85,0,3.06
		c-6.19,0-12.1,0.03-18.01-0.06c-0.46-0.01-1.14-0.72-1.33-1.24c-0.59-1.62-1-3.3-1.37-4.6c-4.89,1.88-9.62,4.07-14.57,5.49
		c-6.36,1.83-12.92,2.1-19.4,0.37c-9.53-2.53-15.35-10.38-15.94-20.56c-0.84-14.25,8.01-21.45,18.32-25.8
		c8.71-3.68,17.87-5.55,27.21-6.69c1.33-0.16,2.64-0.41,3.98-0.62c1.93-7.25-2.26-12.51-10.13-12.84
		C225.76,566.52,218.84,569.45,213.19,576.07z M243.91,593.17c-2.2,0.29-4,0.46-5.77,0.78c-5.44,0.97-10.81,2.22-15.64,5.05
		c-4.25,2.49-6.83,6.02-6.56,11.2c0.25,4.79,3.68,9.34,9.37,9.19c6.97-0.18,12.57-3.21,17.73-7.44c0.43-0.35,0.82-1.05,0.83-1.59
		C243.93,604.76,243.91,599.16,243.91,593.17z"/>
	<path class="st1" d="M474.33,596.79c0.32,7.44,1.19,14.24,7.38,18.8c6.87,5.08,19.61,4.47,26.29-3.97c2.52-3.19,2.6-3.14,6.1-1.19
		c3.99,2.22,7.98,4.46,12.13,6.78c-2.08,4.13-5.08,7.21-8.55,9.87c-6.42,4.92-13.88,7.09-21.8,7.62
		c-5.66,0.38-11.34,0.32-16.93-1.22c-10.92-3.02-18.64-9.68-22.42-20.29c-5.18-14.53-5.15-29.2,1.57-43.24
		c5.56-11.64,15.57-17.11,28.26-18.14c5.9-0.48,11.69-0.1,17.3,1.71c12.3,3.97,19.24,12.88,21.95,25.12
		c1.09,4.95,1.04,10.16,1.57,15.24c0.23,2.24-0.55,2.98-2.89,2.96c-15.59-0.1-31.19-0.05-46.79-0.05
		C476.56,596.79,475.63,596.79,474.33,596.79z M474.8,582.56c10.6,0,20.77,0,31.16,0c-0.17-5.62-1.58-10.58-6.47-13.59
		c-5.67-3.5-11.75-3.69-17.51-0.24C476.95,571.74,475.22,576.74,474.8,582.56z"/>
	<path class="st1" d="M302.46,633.24c-7.09,0-13.95,0-21.11,0c-0.05-0.86-0.13-1.69-0.13-2.53c-0.01-24.22,0.02-48.43-0.05-72.65
		c-0.01-2.01,0.59-2.74,2.62-2.94c4.15-0.41,8.27-1.09,12.39-1.73c1.98-0.31,3.34-0.22,3.5,2.37c0.13,2.06,0.85,4.08,1.27,5.96
		c4.52-2.5,8.73-5.19,13.23-7.24c7.02-3.21,14.48-3.76,21.98-2.01c9.25,2.15,14.48,8.24,16.09,17.45c0.52,3.02,0.72,6.12,0.73,9.19
		c0.07,16.94,0.04,33.87,0.02,50.81c0,1.08-0.13,2.16-0.21,3.33c-7.09,0-13.96,0-21.23,0c0-0.96,0-1.87,0-2.78
		c-0.01-15.99,0.01-31.97-0.04-47.96c-0.01-2.28-0.15-4.59-0.48-6.85c-0.92-6.29-5.43-9.08-12.5-7.77c-5.76,1.06-10.61,4.03-15,7.72
		c-0.7,0.59-0.86,2.12-0.86,3.22c-0.05,16.94-0.03,33.87-0.04,50.81C302.64,630.81,302.53,631.97,302.46,633.24z"/>
	<path class="st1" d="M144.87,553.31c6.45,0,12.69-0.04,18.93,0.08c0.45,0.01,1.2,1.08,1.25,1.7c0.16,2.09,0.06,4.2,0.06,6.75
		c1.42-1.23,2.45-2.17,3.53-3.05c5.59-4.5,11.85-7.21,19.16-6.88c0.68,0.03,1.89,0.83,1.9,1.3c0.13,6.16,0.09,12.32,0.09,18.69
		c-2.82,0.23-5.47,0.43-8.12,0.67c-3.96,0.37-7.8,1.22-11.19,3.42c-2.59,1.69-4.02,3.88-3.99,7.26c0.14,15.67,0.06,31.34,0.06,47.01
		c0,0.93,0,1.87,0,2.98c-7.29,0-14.36,0-21.67,0C144.87,606.62,144.87,580.09,144.87,553.31z"/>
	<path class="st1" d="M569.45,523.5c0,5.64,0,11.08,0,16.53c0,2.69-0.12,5.39,0.04,8.07c0.11,1.93-0.76,2.26-2.4,2.17
		c-1.47-0.08-2.78,0.15-2.73-2.12c0.14-5.77,0.05-11.55-0.26-17.44c-1.21,2.98-2.43,5.96-3.63,8.96c-1.14,2.86-2.28,5.71-3.34,8.59
		c-0.44,1.2-0.9,2.02-2.45,2.02c-1.61,0.01-1.95-1-2.39-2.12c-2.22-5.71-4.46-11.41-7.15-17.06c0,5,0,10,0,15
		c0,4.6-0.04,4.63-4.85,3.86c0-8.71,0-17.45,0-26.59c2.05,0,4.16-0.13,6.24,0.09c0.57,0.06,1.21,1.08,1.5,1.79
		c2.1,5.19,4.11,10.41,6.16,15.61c0.14,0.36,0.33,0.69,0.69,1.45c1.87-4.87,3.6-9.39,5.35-13.91c2.02-5.22,2.03-5.22,7.66-5.05
		C568.3,523.37,568.68,523.43,569.45,523.5z"/>
	<path class="st1" d="M527.26,549.87c-0.65,0.2-0.87,0.31-1.09,0.33c-4.05,0.33-4.05,0.33-4.05-3.77c0-5.38,0-10.76,0-16.14
		c0-0.85,0-1.7,0-2.8c-2.74,0-5.24,0-7.91,0c0-1.4,0-2.54,0-3.92c6.86,0,13.76,0,20.87,0c0,1.16,0,2.36,0,3.81
		c-2.55,0-5.05,0-7.82,0C527.26,535.02,527.26,542.41,527.26,549.87z"/>
	<path class="st2" d="M421.11,590.57c-1.01,5.07-1.49,10.31-3.13,15.16c-3.17,9.41-11.48,11.3-19.63,9.14
		c-4.38-1.16-6.99-4.64-8.24-8.83c-2.76-9.26-3.11-18.64-0.26-27.95c1.47-4.82,4.38-8.59,9.38-10.26
		c6.73-2.24,14.08,0.81,17.83,7.32c2.32,4.03,3.37,8.79,3.37,15.28C420.66,590.48,420.89,590.53,421.11,590.57z"/>
	<path class="st2" d="M72.78,593.33c0.98-4.37,1.62-8.91,3.03-13.19c1.95-5.92,7.15-10.71,16.52-10.45
		c7.03,0.19,12.44,3.7,15.01,10.62c3.24,8.72,3.26,17.61,0.06,26.35c-2.74,7.49-8.1,10.79-16.56,10.74
		c-7.27-0.04-12.8-3.74-15.21-10.92C74.24,602.34,73.74,597.92,72.78,593.33z"/>
	<path class="st2" d="M243.91,593.17c0,5.99,0.02,11.59-0.04,17.19c-0.01,0.54-0.4,1.24-0.83,1.59c-5.17,4.23-10.76,7.26-17.73,7.44
		c-5.69,0.15-9.12-4.4-9.37-9.19c-0.27-5.18,2.31-8.71,6.56-11.2c4.83-2.83,10.2-4.08,15.64-5.05
		C239.91,593.63,241.71,593.47,243.91,593.17z"/>
	<path class="st2" d="M474.8,582.56c0.42-5.82,2.15-10.82,7.18-13.83c5.76-3.45,11.84-3.26,17.51,0.24
		c4.88,3.01,6.3,7.97,6.47,13.59C495.57,582.56,485.4,582.56,474.8,582.56z"/>
</g>
</svg>
