<?xml version="1.0" encoding="utf-8"?>
<!-- Generator: Adobe Illustrator 24.1.0, SVG Export Plug-In . SVG Version: 6.00 Build 0)  -->
<svg version="1.1" id="Calque_1" xmlns="http://www.w3.org/2000/svg" xmlns:xlink="http://www.w3.org/1999/xlink" x="0px" y="0px"
	 viewBox="0 0 612 792" style="enable-background:new 0 0 612 792;" xml:space="preserve">
<style type="text/css">
	.st0{fill:#FFFFFF;}
</style>
<g>
	<g>
		<path class="st0" d="M279.14,328.89v-33.32h12.75c4.82,0,7.97,0.15,9.45,0.51c2.23,0.51,4.16,1.57,5.69,3.25
			c1.52,1.68,2.29,3.86,2.29,6.5c0,2.03-0.46,3.76-1.32,5.18c-0.86,1.37-1.98,2.49-3.35,3.3s-2.74,1.32-4.11,1.57
			c-1.88,0.3-4.62,0.51-8.23,0.51h-5.18v12.6h-7.97V328.89z M287.07,301.21v9.45h4.37c3.15,0,5.23-0.15,6.3-0.51
			s1.88-0.91,2.49-1.63c0.61-0.76,0.91-1.63,0.91-2.59c0-1.22-0.41-2.23-1.27-3s-1.93-1.27-3.2-1.47c-0.96-0.15-2.84-0.2-5.74-0.2
			h-3.86V301.21z"/>
		<path class="st0" d="M322.98,328.89h-7.57v-24.12h7.01v3.45c1.17-1.63,2.29-2.69,3.25-3.2c0.97-0.51,2.03-0.76,3.25-0.76
			c1.73,0,3.4,0.41,4.98,1.22l-2.34,5.59c-1.27-0.71-2.44-1.07-3.56-1.07c-1.07,0-1.93,0.25-2.69,0.76
			c-0.71,0.51-1.32,1.37-1.73,2.69c-0.41,1.27-0.61,3.96-0.61,8.08V328.89z"/>
		<path class="st0" d="M335.47,316.5c0-2.13,0.61-4.16,1.83-6.15c1.22-1.98,3-3.5,5.28-4.57c2.23-1.07,4.77-1.57,7.57-1.57
			c4.32,0,7.87,1.17,10.61,3.56c2.74,2.39,4.11,5.38,4.11,8.99c0,3.66-1.37,6.7-4.16,9.09c-2.79,2.39-6.3,3.61-10.51,3.61
			c-2.64,0-5.13-0.51-7.47-1.52c-2.39-1.02-4.16-2.49-5.43-4.42C336.03,321.58,335.47,319.29,335.47,316.5z M343.19,316.86
			c0,2.39,0.66,4.22,2.03,5.49c1.32,1.27,3,1.88,4.98,1.88c1.98,0,3.61-0.61,4.93-1.88c1.32-1.27,1.98-3.15,1.98-5.54
			s-0.66-4.16-1.98-5.49c-1.32-1.27-3-1.93-4.93-1.93c-1.98,0-3.61,0.66-4.98,1.93C343.85,312.64,343.19,314.47,343.19,316.86z"/>
		<path class="st0" d="M370.11,330.52l8.63,0.86c0.15,0.86,0.46,1.42,1.02,1.73c0.71,0.46,1.83,0.71,3.4,0.71
			c1.98,0,3.45-0.25,4.42-0.76c0.66-0.36,1.17-0.86,1.52-1.63c0.25-0.51,0.36-1.52,0.36-2.95v-3.56c-2.23,2.59-5.13,3.91-8.53,3.91
			c-3.81,0-6.86-1.37-9.09-4.11c-1.78-2.18-2.64-4.88-2.64-8.08c0-4.06,1.17-7.16,3.45-9.29s5.18-3.2,8.58-3.2
			c3.5,0,6.45,1.32,8.74,3.91v-3.4h7.06v21.69c0,2.84-0.3,4.98-0.81,6.4c-0.56,1.42-1.32,2.49-2.34,3.3
			c-1.02,0.81-2.34,1.42-4.01,1.88c-1.68,0.46-3.81,0.71-6.35,0.71c-4.82,0-8.28-0.71-10.26-2.13c-1.98-1.42-3.05-3.2-3.05-5.33
			C370.06,331.08,370.06,330.82,370.11,330.52z M376.81,316.35c0,2.59,0.56,4.42,1.78,5.64c1.17,1.17,2.64,1.78,4.32,1.78
			c1.83,0,3.4-0.61,4.67-1.83c1.27-1.22,1.93-3.05,1.93-5.43c0-2.49-0.61-4.37-1.83-5.59c-1.22-1.22-2.74-1.83-4.62-1.83
			c-1.83,0-3.3,0.61-4.47,1.78C377.42,312.08,376.81,313.91,376.81,316.35z"/>
		<path class="st0" d="M411.6,328.89h-7.57v-24.12h7.01v3.45c1.17-1.63,2.29-2.69,3.25-3.2c0.96-0.51,2.03-0.76,3.25-0.76
			c1.73,0,3.4,0.41,4.98,1.22l-2.34,5.59c-1.27-0.71-2.44-1.07-3.56-1.07c-1.07,0-1.93,0.25-2.69,0.76
			c-0.71,0.51-1.32,1.37-1.73,2.69c-0.41,1.27-0.61,3.96-0.61,8.08V328.89z"/>
		<path class="st0" d="M431.41,312.13l-6.86-1.07c0.76-2.34,2.08-4.06,3.96-5.18s4.67-1.68,8.38-1.68c3.35,0,5.89,0.36,7.52,1.02
			c1.63,0.66,2.79,1.52,3.5,2.59c0.66,1.07,1.02,2.95,1.02,5.74l-0.05,7.47c0,2.13,0.1,3.71,0.36,4.67
			c0.25,1.02,0.71,2.08,1.37,3.25h-7.47c-0.2-0.41-0.46-1.07-0.71-1.88c-0.1-0.41-0.2-0.61-0.25-0.76
			c-1.27,1.07-2.69,1.88-4.11,2.39c-1.47,0.51-3.05,0.81-4.67,0.81c-2.95,0-5.28-0.66-6.96-2.03c-1.68-1.37-2.54-3.05-2.54-5.13
			c0-1.37,0.36-2.59,1.17-3.66c0.76-1.07,1.83-1.88,3.25-2.44c1.37-0.56,3.4-1.07,5.99-1.47c3.56-0.56,5.99-1.07,7.31-1.57v-0.66
			c0-1.22-0.36-2.08-1.07-2.64c-0.71-0.51-2.08-0.76-4.06-0.76c-1.32,0-2.39,0.2-3.15,0.66
			C432.53,310.25,431.87,311.01,431.41,312.13z M441.52,317.31c-0.97,0.25-2.49,0.61-4.57,0.97c-2.08,0.36-3.45,0.76-4.11,1.12
			c-1.02,0.61-1.47,1.37-1.47,2.23c0,0.91,0.41,1.68,1.17,2.34s1.78,0.96,3,0.96c1.37,0,2.64-0.36,3.91-1.12
			c0.91-0.56,1.52-1.27,1.78-2.13c0.2-0.56,0.3-1.57,0.3-3.1L441.52,317.31L441.52,317.31z"/>
		<path class="st0" d="M455.84,304.77h6.96v3.3c2.49-2.59,5.43-3.86,8.89-3.86c1.83,0,3.4,0.3,4.77,0.97
			c1.32,0.61,2.44,1.57,3.3,2.9c1.27-1.27,2.59-2.23,4.06-2.9c1.47-0.66,3-0.97,4.67-0.97c2.08,0,3.86,0.36,5.33,1.07
			c1.47,0.71,2.54,1.78,3.25,3.15c0.51,1.02,0.76,2.69,0.76,4.98v15.44h-7.57v-13.81c0-2.39-0.25-3.96-0.76-4.67
			c-0.71-0.91-1.78-1.37-3.2-1.37c-1.07,0-2.03,0.25-3,0.81c-0.91,0.56-1.57,1.37-1.98,2.39c-0.41,1.07-0.61,2.69-0.61,4.98v11.58
			h-7.57v-13.26c0-2.34-0.15-3.86-0.41-4.57c-0.25-0.66-0.71-1.17-1.27-1.52s-1.32-0.51-2.29-0.51c-1.17,0-2.18,0.25-3.15,0.81
			c-0.91,0.51-1.57,1.32-1.98,2.29c-0.41,1.02-0.61,2.64-0.61,4.98v11.73h-7.57v-23.92H455.84z"/>
		<path class="st0" d="M504.75,304.77h6.96v3.3c2.49-2.59,5.43-3.86,8.89-3.86c1.83,0,3.4,0.3,4.77,0.97
			c1.32,0.61,2.44,1.57,3.3,2.9c1.27-1.27,2.59-2.23,4.06-2.9c1.47-0.66,3-0.97,4.67-0.97c2.08,0,3.86,0.36,5.33,1.07
			c1.47,0.71,2.54,1.78,3.25,3.15c0.51,1.02,0.76,2.69,0.76,4.98v15.44h-7.57v-13.81c0-2.39-0.25-3.96-0.76-4.67
			c-0.71-0.91-1.78-1.37-3.2-1.37c-1.07,0-2.03,0.25-3,0.81c-0.91,0.56-1.57,1.37-1.98,2.39c-0.41,1.07-0.61,2.69-0.61,4.98v11.58
			h-7.57v-13.26c0-2.34-0.15-3.86-0.41-4.57c-0.25-0.66-0.71-1.17-1.27-1.52c-0.56-0.36-1.32-0.51-2.29-0.51
			c-1.17,0-2.18,0.25-3.15,0.81c-0.91,0.51-1.57,1.32-1.98,2.29c-0.41,1.02-0.61,2.64-0.61,4.98v11.73h-7.57v-23.92H504.75z"/>
		<path class="st0" d="M570.73,321.22l7.52,1.07c-0.97,2.34-2.49,4.11-4.57,5.33c-2.08,1.22-4.67,1.83-7.82,1.83
			c-4.98,0-8.63-1.37-11.02-4.11c-1.88-2.18-2.84-4.98-2.84-8.33c0-4.01,1.22-7.11,3.71-9.4c2.49-2.29,5.59-3.4,9.4-3.4
			c4.27,0,7.57,1.17,10.06,3.56c2.44,2.39,3.61,5.99,3.5,10.92h-18.89c0.05,1.88,0.66,3.35,1.83,4.42c1.17,1.07,2.64,1.57,4.37,1.57
			c1.17,0,2.18-0.25,3-0.81C569.71,323.31,570.32,322.44,570.73,321.22z M571.13,314.77c-0.05-1.83-0.61-3.25-1.68-4.22
			c-1.07-0.96-2.39-1.42-3.91-1.42c-1.63,0-3,0.51-4.06,1.52c-1.07,1.02-1.63,2.39-1.57,4.11H571.13z"/>
		<path class="st0" d="M314.65,384.81h-8.63l-3.45-7.57h-15.74l-3.25,7.57h-8.43l15.34-33.32h8.38L314.65,384.81z M300.02,371.61
			l-5.43-12.39l-5.33,12.39H300.02z"/>
		<path class="st0" d="M318.81,384.81v-33.32h7.57v33.32H318.81z"/>
		<path class="st0" d="M334.1,357.39v-5.89h7.57v5.89H334.1z M334.1,384.81v-24.12h7.57v24.12H334.1z"/>
		<path class="st0" d="M348.83,360.64h6.96v3.3c2.49-2.59,5.43-3.86,8.89-3.86c1.83,0,3.4,0.3,4.77,0.97
			c1.32,0.61,2.44,1.57,3.3,2.9c1.27-1.27,2.59-2.23,4.06-2.9c1.47-0.66,3-0.97,4.67-0.97c2.08,0,3.86,0.36,5.33,1.07
			c1.47,0.71,2.54,1.78,3.25,3.15c0.51,1.02,0.76,2.69,0.76,4.98v15.44h-7.57V370.9c0-2.39-0.25-3.96-0.76-4.67
			c-0.71-0.91-1.78-1.37-3.2-1.37c-1.07,0-2.03,0.25-3,0.81c-0.91,0.56-1.57,1.37-1.98,2.39c-0.41,1.02-0.61,2.69-0.61,4.98v11.58
			h-7.57v-13.26c0-2.34-0.15-3.86-0.41-4.57c-0.25-0.66-0.71-1.17-1.27-1.52s-1.32-0.51-2.29-0.51c-1.17,0-2.18,0.25-3.15,0.81
			c-0.91,0.51-1.57,1.32-1.98,2.29c-0.41,1.02-0.61,2.64-0.61,4.98v11.73h-7.57v-23.92H348.83z"/>
		<path class="st0" d="M414.8,377.14l7.52,1.07c-0.97,2.34-2.49,4.11-4.57,5.33c-2.08,1.22-4.67,1.83-7.82,1.83
			c-4.98,0-8.63-1.37-11.02-4.11c-1.88-2.18-2.84-4.98-2.84-8.33c0-4.01,1.22-7.11,3.71-9.4c2.49-2.29,5.59-3.4,9.4-3.4
			c4.27,0,7.57,1.17,10.06,3.56c2.44,2.39,3.61,5.99,3.5,10.92h-18.89c0.05,1.88,0.66,3.35,1.83,4.42c1.17,1.07,2.64,1.57,4.37,1.57
			c1.17,0,2.18-0.25,3-0.81S414.4,378.31,414.8,377.14z M415.26,370.64c-0.05-1.83-0.61-3.25-1.68-4.22
			c-1.07-0.96-2.39-1.42-3.91-1.42c-1.63,0-3,0.51-4.06,1.52c-1.07,1.02-1.63,2.39-1.57,4.11H415.26z"/>
		<path class="st0" d="M454.83,384.81h-7.57v-12.34c0-2.59-0.15-4.32-0.51-5.08c-0.3-0.76-0.86-1.37-1.57-1.78
			c-0.71-0.41-1.57-0.61-2.64-0.61c-1.32,0-2.49,0.3-3.5,0.91c-1.02,0.61-1.78,1.42-2.13,2.39c-0.41,1.02-0.56,2.84-0.56,5.54v10.92
			h-7.57v-24.12h7.01v3.56c2.49-2.74,5.64-4.11,9.4-4.11c1.68,0,3.2,0.25,4.57,0.76c1.37,0.51,2.44,1.17,3.15,1.93
			c0.71,0.76,1.17,1.68,1.47,2.69c0.25,1.02,0.41,2.44,0.41,4.32v15.03H454.83z"/>
		<path class="st0" d="M475.55,360.64v5.08h-5.13v9.75c0,1.98,0.05,3.1,0.15,3.45c0.1,0.36,0.3,0.61,0.66,0.81
			c0.36,0.2,0.76,0.3,1.27,0.3c0.71,0,1.73-0.2,3.05-0.61l0.66,4.93c-1.78,0.61-3.76,0.97-5.94,0.97c-1.37,0-2.59-0.2-3.71-0.56
			c-1.07-0.41-1.88-0.86-2.39-1.52c-0.51-0.61-0.86-1.42-1.07-2.49c-0.15-0.76-0.25-2.23-0.25-4.52v-10.51h-3.45v-5.08h3.45v-4.77
			l7.57-3.71v8.53h5.13V360.64z"/>
		<path class="st0" d="M486.42,368l-6.86-1.07c0.76-2.34,2.08-4.06,3.96-5.18s4.67-1.68,8.38-1.68c3.35,0,5.89,0.36,7.52,1.02
			c1.63,0.66,2.79,1.52,3.5,2.59c0.66,1.07,1.02,2.95,1.02,5.74l-0.05,7.47c0,2.13,0.1,3.71,0.36,4.67
			c0.25,1.02,0.71,2.08,1.37,3.25h-7.47c-0.2-0.41-0.46-1.07-0.71-1.88c-0.1-0.41-0.2-0.61-0.25-0.76
			c-1.27,1.07-2.69,1.88-4.11,2.39c-1.47,0.51-3.05,0.81-4.67,0.81c-2.95,0-5.28-0.66-6.96-2.03c-1.68-1.37-2.54-3.05-2.54-5.13
			c0-1.37,0.36-2.59,1.17-3.66c0.76-1.07,1.83-1.88,3.25-2.44c1.37-0.56,3.4-1.07,5.99-1.47c3.56-0.56,5.99-1.07,7.31-1.57v-0.66
			c0-1.22-0.36-2.08-1.07-2.64c-0.71-0.51-2.08-0.76-4.06-0.76c-1.32,0-2.39,0.2-3.15,0.66C487.53,366.12,486.87,366.88,486.42,368z
			 M496.52,373.18c-0.96,0.25-2.49,0.61-4.57,0.97c-2.08,0.36-3.45,0.76-4.11,1.12c-1.02,0.61-1.47,1.37-1.47,2.23
			c0,0.91,0.41,1.68,1.17,2.34s1.78,0.96,3,0.96c1.37,0,2.64-0.36,3.91-1.12c0.91-0.56,1.52-1.27,1.78-2.13
			c0.2-0.56,0.3-1.57,0.3-3.1L496.52,373.18L496.52,373.18z"/>
		<path class="st0" d="M511.4,357.39v-5.89h7.57v5.89H511.4z M511.4,384.81v-24.12h7.57v24.12H511.4z"/>
		<path class="st0" d="M533.9,384.81h-7.57v-24.12h7.01v3.45c1.17-1.63,2.29-2.69,3.25-3.2s2.03-0.76,3.25-0.76
			c1.73,0,3.4,0.41,4.98,1.22l-2.34,5.59c-1.27-0.71-2.44-1.07-3.56-1.07c-1.07,0-1.93,0.25-2.69,0.76
			c-0.71,0.51-1.32,1.37-1.73,2.69c-0.41,1.27-0.61,3.96-0.61,8.08V384.81z"/>
		<path class="st0" d="M564.58,377.14l7.52,1.07c-0.97,2.34-2.49,4.11-4.57,5.33c-2.08,1.22-4.67,1.83-7.82,1.83
			c-4.98,0-8.63-1.37-11.02-4.11c-1.88-2.18-2.84-4.98-2.84-8.33c0-4.01,1.22-7.11,3.71-9.4c2.49-2.29,5.59-3.4,9.4-3.4
			c4.27,0,7.57,1.17,10.06,3.56c2.44,2.39,3.61,5.99,3.5,10.92h-18.89c0.05,1.88,0.66,3.35,1.83,4.42c1.17,1.07,2.64,1.57,4.37,1.57
			c1.17,0,2.18-0.25,3-0.81C563.57,379.23,564.17,378.31,564.58,377.14z M565.04,370.64c-0.05-1.83-0.61-3.25-1.68-4.22
			c-1.07-0.96-2.39-1.42-3.91-1.42c-1.63,0-3,0.51-4.06,1.52c-1.07,1.02-1.63,2.39-1.57,4.11H565.04z"/>
		<path class="st0" d="M279.04,440.68v-33.32h11.88l7.16,22.75l7.06-22.75h11.94v33.32h-7.36v-26.26l-7.82,26.26h-7.67l-7.77-26.26
			v26.26H279.04z"/>
		<path class="st0" d="M323.18,428.29c0-2.13,0.61-4.16,1.83-6.15c1.22-1.98,3-3.5,5.28-4.57c2.23-1.07,4.77-1.57,7.57-1.57
			c4.32,0,7.87,1.17,10.61,3.56c2.74,2.39,4.11,5.38,4.11,8.99c0,3.66-1.37,6.7-4.16,9.09c-2.79,2.39-6.3,3.61-10.51,3.61
			c-2.64,0-5.13-0.51-7.47-1.52c-2.39-1.02-4.16-2.49-5.43-4.42C323.79,433.42,323.18,431.03,323.18,428.29z M330.9,428.59
			c0,2.39,0.66,4.22,2.03,5.49c1.32,1.27,3,1.88,4.98,1.88c1.98,0,3.61-0.61,4.93-1.88c1.32-1.27,1.98-3.15,1.98-5.54
			c0-2.39-0.66-4.16-1.98-5.49c-1.32-1.27-3-1.93-4.93-1.93c-1.98,0-3.61,0.66-4.98,1.93C331.56,424.38,330.9,426.21,330.9,428.59z"
			/>
		<path class="st0" d="M384.43,440.68h-7.57v-12.34c0-2.59-0.15-4.32-0.51-5.08c-0.3-0.76-0.86-1.37-1.57-1.78
			c-0.71-0.41-1.57-0.61-2.64-0.61c-1.32,0-2.49,0.3-3.5,0.91c-1.02,0.61-1.78,1.42-2.13,2.39c-0.41,1.02-0.56,2.84-0.56,5.54v10.92
			h-7.57V416.5h7.01v3.56c2.49-2.74,5.64-4.11,9.4-4.11c1.68,0,3.2,0.25,4.57,0.76c1.37,0.51,2.44,1.17,3.15,1.93
			c0.71,0.76,1.17,1.68,1.47,2.69c0.25,1.02,0.41,2.44,0.41,4.32v15.03H384.43z"/>
		<path class="st0" d="M418.26,440.68h-7.01v-3.56c-1.17,1.37-2.54,2.39-4.11,3.1c-1.57,0.66-3.2,1.02-4.82,1.02
			c-3.25,0-6.09-1.12-8.43-3.35c-2.34-2.23-3.5-5.33-3.5-9.35c0-4.11,1.12-7.21,3.4-9.35c2.29-2.13,5.13-3.2,8.63-3.2
			c3.2,0,5.94,1.12,8.28,3.35v-11.99h7.57V440.68z M398.14,428.08c0,2.59,0.41,4.42,1.27,5.59c1.22,1.68,2.9,2.49,5.08,2.49
			c1.73,0,3.2-0.61,4.42-1.88c1.22-1.27,1.83-3.1,1.83-5.59c0-2.79-0.61-4.77-1.78-5.99c-1.17-1.22-2.69-1.83-4.52-1.83
			c-1.78,0-3.3,0.61-4.52,1.83C398.7,423.92,398.14,425.7,398.14,428.08z"/>
		<path class="st0" d="M425.72,413.25v-5.89h7.57v5.89H425.72z M425.72,440.68v-24.12h7.57v24.12H425.72z"/>
		<path class="st0" d="M446.65,423.92l-6.86-1.07c0.76-2.34,2.08-4.06,3.96-5.18s4.67-1.68,8.38-1.68c3.35,0,5.89,0.36,7.52,1.02
			c1.63,0.66,2.79,1.52,3.5,2.59c0.66,1.07,1.02,2.95,1.02,5.74l-0.05,7.47c0,2.13,0.1,3.71,0.36,4.67
			c0.25,1.02,0.71,2.08,1.37,3.25h-7.47c-0.2-0.41-0.46-1.07-0.71-1.88c-0.1-0.41-0.2-0.61-0.25-0.76
			c-1.27,1.07-2.69,1.88-4.11,2.39c-1.47,0.51-3.05,0.81-4.67,0.81c-2.95,0-5.28-0.66-6.96-2.03c-1.68-1.37-2.54-3.05-2.54-5.13
			c0-1.37,0.36-2.59,1.17-3.66c0.76-1.07,1.83-1.88,3.25-2.44c1.37-0.56,3.4-1.07,5.99-1.47c3.56-0.56,5.99-1.07,7.31-1.57v-0.66
			c0-1.22-0.36-2.08-1.07-2.64c-0.71-0.51-2.08-0.76-4.06-0.76c-1.32,0-2.39,0.2-3.15,0.66
			C447.71,421.99,447.11,422.8,446.65,423.92z M456.7,429.1c-0.96,0.25-2.49,0.61-4.57,0.96c-2.08,0.36-3.45,0.76-4.11,1.12
			c-1.02,0.61-1.47,1.37-1.47,2.23c0,0.91,0.41,1.68,1.17,2.34s1.78,0.97,3,0.97c1.37,0,2.64-0.36,3.91-1.12
			c0.91-0.56,1.52-1.27,1.78-2.13c0.2-0.56,0.3-1.57,0.3-3.1L456.7,429.1L456.7,429.1z"/>
		<path class="st0" d="M471.59,440.68v-33.32h7.57v33.32H471.59z"/>
	</g>
	<g>
		<path class="st0" d="M106.87,507.11v-27.22h9.14c3.45,0,5.74,0.15,6.76,0.41c1.63,0.41,2.95,1.32,4.06,2.64
			c1.07,1.37,1.63,3.15,1.63,5.28c0,1.68-0.3,3.1-0.91,4.22c-0.61,1.12-1.42,2.03-2.39,2.69c-0.97,0.66-1.93,1.07-2.95,1.27
			c-1.37,0.25-3.35,0.41-5.89,0.41h-3.71v10.26h-5.74V507.11z M112.55,484.51v7.72h3.1c2.23,0,3.76-0.15,4.52-0.41
			c0.76-0.3,1.37-0.71,1.78-1.32c0.46-0.61,0.66-1.32,0.66-2.13c0-1.02-0.3-1.83-0.91-2.44c-0.61-0.66-1.37-1.07-2.29-1.22
			c-0.66-0.1-2.03-0.2-4.11-0.2L112.55,484.51L112.55,484.51z"/>
		<path class="st0" d="M155.68,507.11h-6.2l-2.49-6.2h-11.28l-2.34,6.2h-6.04l10.97-27.22h6.04L155.68,507.11z M145.16,496.35
			l-3.91-10.11l-3.81,10.11H145.16z"/>
		<path class="st0" d="M158.57,507.11v-27.22h8.53l5.13,18.54l5.08-18.54h8.53v27.22h-5.28v-21.43l-5.59,21.43h-5.49l-5.59-21.43
			v21.43H158.57z"/>
	</g>
	<g>
		<path class="st0" d="M111.13,264.54l-6.86-28.59h5.89l4.32,19.66l5.23-19.66h6.86l5.03,20.01l4.37-20.01h5.84l-6.96,28.59h-6.15
			l-5.69-21.38l-5.69,21.38H111.13z"/>
		<path class="st0" d="M144.86,264.54v-28.59h19.6v4.82H150.6v6.76h11.94v4.82H150.6v12.14h-5.74V264.54z"/>
		<path class="st0" d="M169.24,264.54v-28.59h9.29c3.5,0,5.79,0.15,6.86,0.41c1.63,0.41,3,1.37,4.11,2.79s1.68,3.3,1.68,5.59
			c0,1.78-0.3,3.25-0.97,4.42c-0.66,1.17-1.47,2.13-2.44,2.84c-0.97,0.66-1.98,1.12-3,1.37c-1.37,0.25-3.35,0.41-5.99,0.41h-3.76
			v10.82h-5.79V264.54z M174.98,240.77v8.13h3.15c2.29,0,3.81-0.15,4.57-0.46c0.76-0.3,1.37-0.76,1.83-1.42
			c0.46-0.66,0.66-1.37,0.66-2.23c0-1.07-0.3-1.88-0.91-2.59c-0.61-0.66-1.37-1.12-2.34-1.27c-0.71-0.15-2.08-0.2-4.16-0.2h-2.79
			V240.77z"/>
	</g>
	<g>
		<path class="st0" d="M139.88,306.55c2.74-3.71,5.54-7.16,7.92-10.92c0.86-1.37,0.76-3.4,0.97-5.13c0.1-0.81,0-1.63,0-2.59
			c3.35,2.18,5.33,7.26,3.76,11.12c-1.47,3.66-3.71,7.06-5.69,10.46c-1.32,2.29-2.79,4.52-3.81,7.06c0.2-0.15,0.41-0.3,0.56-0.51
			c2.39-3.2,4.72-6.45,7.06-9.7c3.15-4.32,4.11-8.08,3.45-13.61c2.34,3.71,2.49,7.42,1.88,11.12c-1.07,6.15-2.54,12.19-3.4,18.39
			c-1.17,7.97-1.47,15.95-0.05,23.92c0.15,0.81,0.1,1.68,0.2,2.84c-11.17,0.41-22.7-1.57-33.01,5.08
			c-9.19-19.76-18.34-39.26-37.53-51.45c6.4-0.56,12.29,1.17,17.47,4.47c5.13,3.25,9.75,7.31,14.17,10.72
			c0.46-5.03,1.02-10.72,1.52-16.4c0.2-2.54,1.57-4.27,3.61-5.49c3.3-2.03,6.55-2.9,10.61-1.47c3.45,1.17,4.57,4.11,6.6,6.3
			c1.22,1.32,1.78,3.25,2.69,4.88C139.07,306.09,139.57,306.34,139.88,306.55z M137.59,310.3c0.71-0.81,2.08-1.57,0.86-2.74
			c-0.46-0.46-1.78-0.2-2.59,0.1c-0.41,0.15-0.51,1.07-0.76,1.68c0.86,0.3,1.68,0.61,2.54,0.91c-0.25,0.15-0.61,0.3-0.71,0.51
			c-0.36,0.81-0.66,1.63-1.02,2.49c0.86,0.25,1.83,0.86,2.54,0.61c0.76-0.2,1.78-1.22,1.78-1.93
			C140.29,310.35,138.86,310.3,137.59,310.3z M131.7,329.6c-0.91,0.91-2.03,1.73-2.64,2.84c-0.15,0.3,1.27,2.08,1.98,2.08
			c1.37,0,3.35,0.05,3.4-2.18C134.55,330.87,133.68,330.11,131.7,329.6z M131.14,324.58c-1.37,1.32-2.34,2.18-3.25,3.1
			c0.66,0.66,1.32,1.93,1.98,1.93c1.42,0,3.35-0.15,3.35-2.29C133.23,326.56,132.16,325.85,131.14,324.58z M122.2,329.25
			c1.42,3.2,2.44,3.96,3.96,2.79c0.66-0.51,1.12-1.98,0.91-2.79C126.62,327.83,124.34,327.88,122.2,329.25z M134.8,334.94
			c-2.18,0.2-4.22-0.25-4.57,2.13c-0.1,0.66,1.02,2.18,1.63,2.18C134.6,339.36,133.94,336.92,134.8,334.94z M138.61,319.24
			c1.22-1.27,2.03-2.08,2.84-2.9c-0.61-0.61-1.52-1.83-1.83-1.68c-1.07,0.46-1.98,1.32-2.74,2.18
			C136.78,316.96,137.8,318.07,138.61,319.24z M123.88,328.33c1.22-1.22,2.03-1.98,2.84-2.79c-0.61-0.61-1.42-1.88-1.83-1.78
			c-1.07,0.36-1.98,1.22-2.95,1.93C122.46,326.4,122.97,327.12,123.88,328.33z M128.3,321.22c1.12-1.17,1.88-1.93,2.64-2.74
			c-0.71-0.61-1.63-1.78-2.18-1.63c-0.97,0.2-1.78,1.27-2.59,1.98C126.78,319.5,127.33,320.11,128.3,321.22z M128.96,325.49
			c1.22-1.12,2.03-1.88,2.84-2.59c-0.61-0.66-1.42-1.93-1.83-1.78c-1.07,0.36-1.98,1.22-2.95,1.93
			C127.54,323.66,128.1,324.32,128.96,325.49z M117.33,319.04c1.07-1.22,1.68-1.93,2.29-2.64c-0.81-0.61-1.63-1.63-2.44-1.68
			c-0.71-0.05-1.47,1.07-2.18,1.68C115.6,317.16,116.26,317.87,117.33,319.04z M127.33,316.96c1.17-1.22,1.93-1.98,2.69-2.79
			c-0.66-0.56-1.42-1.73-1.93-1.63c-1.02,0.2-1.88,1.12-2.84,1.73C125.86,315.03,126.42,315.74,127.33,316.96z M123.47,323.86
			c1.02-1.22,1.73-2.03,2.39-2.84c-0.61-0.51-1.22-1.42-1.88-1.42c-1.22-0.05-2.9,0-2.69,1.93
			C121.34,322.19,122.41,322.75,123.47,323.86z M118.29,323.51c0.86-1.22,1.73-1.88,1.78-2.64c0.2-1.57-1.07-1.98-2.29-1.73
			c-0.81,0.2-1.52,0.91-2.23,1.42C116.31,321.38,117.08,322.19,118.29,323.51z M135.66,327.32c1.17-1.22,1.93-2.03,2.69-2.79
			c-0.66-0.56-1.47-1.73-1.93-1.63c-1.02,0.25-1.83,1.22-2.69,1.88C134.24,325.44,134.75,326.1,135.66,327.32z M122.56,319.65
			c1.12-1.32,1.78-2.08,2.39-2.84c-0.66-0.56-1.42-1.63-1.98-1.57c-0.91,0.15-1.73,1.07-2.54,1.68
			C120.99,317.62,121.54,318.33,122.56,319.65z M132.52,314.98c1.17-1.22,1.88-2.03,2.64-2.79c-0.66-0.51-1.27-1.37-1.93-1.42
			c-1.17-0.05-2.69,0.15-2.54,1.88C130.79,313.3,131.6,313.86,132.52,314.98z M134.14,323.26c1.17-1.27,1.98-1.98,2.54-2.9
			c0.1-0.15-1.22-1.63-1.63-1.52c-1.02,0.3-1.88,1.12-2.79,1.73C132.72,321.33,133.23,321.99,134.14,323.26z M117.28,314.62
			c0.86-1.12,1.37-1.83,1.93-2.49c-0.86-0.56-1.63-1.47-2.54-1.57c-0.56-0.05-1.27,1.07-1.93,1.63
			C115.45,312.89,116.16,313.55,117.28,314.62z M133.28,319.09c1.17-1.22,1.88-2.03,2.59-2.79c-0.61-0.51-1.22-1.32-1.88-1.42
			c-1.22-0.2-2.64,0.1-2.49,1.83C131.6,317.31,132.41,317.92,133.28,319.09z M121.7,315.18c1.17-1.07,1.88-1.78,2.64-2.44
			c-0.66-0.61-1.37-1.78-1.88-1.63c-0.91,0.2-1.78,1.07-2.44,1.83C119.87,313.05,120.88,314.11,121.7,315.18z M126.01,303.45
			c-1.02,1.22-1.68,1.98-2.34,2.74c0.71,0.56,1.57,1.68,2.08,1.52c0.91-0.25,1.68-1.22,2.23-2.03
			C128.05,305.48,126.98,304.51,126.01,303.45z M131.7,310.71c1.12-1.17,1.83-1.88,2.54-2.64c-0.71-0.51-1.52-1.57-2.08-1.47
			c-0.91,0.2-1.63,1.17-2.39,1.83C130.28,309.08,130.79,309.69,131.7,310.71z M127.08,307.51c-1.12,1.12-1.78,1.88-2.49,2.59
			c0.66,0.56,1.47,1.63,1.98,1.52c0.86-0.2,1.68-1.07,2.29-1.88C128.96,309.64,127.94,308.63,127.08,307.51z M124.34,334.07
			c1.73,0.81,0.97,3.56,3.35,2.84c0.46-0.15,0.91-1.98,0.61-2.64C127.54,332.6,126.17,333.06,124.34,334.07z M137.9,305.28
			c0-0.3,0-0.56,0-0.86c-0.61-0.36-1.32-1.12-1.83-1.02c-0.81,0.2-1.47,0.96-2.23,1.52c0.46,0.56,1.02,1.57,1.42,1.52
			C136.17,306.34,137.04,305.68,137.9,305.28z M117.18,310.3c0.86-0.91,1.32-1.42,1.83-1.98c-0.71-0.56-1.32-1.37-2.13-1.52
			c-0.51-0.1-1.22,0.81-1.83,1.27C115.7,308.73,116.31,309.39,117.18,310.3z M141.96,319.19c-0.1-0.25-0.25-0.51-0.36-0.76
			c-1.02,0.41-2.18,0.56-2.95,1.22c-0.41,0.36-0.05,1.52,0,2.34c0.66-0.15,1.52-0.1,1.93-0.51
			C141.2,320.92,141.5,319.95,141.96,319.19z M125.25,299.99c-0.97,0.96-1.57,1.57-2.23,2.23c0.56,0.46,1.22,1.42,1.63,1.32
			c0.81-0.15,1.52-0.96,2.23-1.47C126.47,301.52,126.01,300.91,125.25,299.99z M121.75,306.8c-0.86,0.81-1.47,1.37-2.03,1.93
			c0.56,0.51,1.22,1.47,1.57,1.37c0.76-0.2,1.42-1.02,2.08-1.52C122.92,308.12,122.46,307.61,121.75,306.8z M130.99,302.58
			c-0.91,0.86-1.57,1.47-2.23,2.08c0.51,0.51,1.17,1.47,1.52,1.37c0.81-0.2,1.47-0.96,2.18-1.52
			C132.06,303.96,131.65,303.45,130.99,302.58z M123.83,305.38c-1.22-0.81-1.83-1.52-2.34-1.42c-0.66,0.1-1.22,0.81-1.78,1.27
			c0.51,0.46,0.97,1.22,1.47,1.27C121.8,306.49,122.46,305.94,123.83,305.38z M135.97,331.38c0.71-1.68,1.22-2.9,1.88-4.32
			C134.65,327.42,134.19,328.38,135.97,331.38z M119.82,304.77c-1.27-0.71-1.93-1.32-2.54-1.32c-0.51,0-0.97,0.81-1.42,1.32
			c0.51,0.41,1.02,1.12,1.57,1.17C117.99,306.04,118.6,305.43,119.82,304.77z M131.6,301.01c-1.17-0.61-1.88-1.27-2.34-1.12
			c-0.66,0.2-1.12,0.97-1.68,1.47c0.51,0.41,1.07,1.12,1.57,1.07C129.82,302.43,130.43,301.77,131.6,301.01z M133.23,303.29
			c0.3,0.15,0.66,0.36,0.97,0.51c0.41-0.76,1.02-1.47,1.22-2.29c0.05-0.3-0.97-1.22-1.27-1.12c-0.71,0.2-1.37,0.81-1.83,1.42
			C132.21,302.03,132.92,302.79,133.23,303.29z M126.83,298.57c-1.12-0.66-1.73-1.27-2.13-1.17c-0.71,0.15-1.27,0.81-1.93,1.22
			c0.46,0.41,0.91,1.12,1.32,1.12C124.8,299.69,125.46,299.18,126.83,298.57z M127.74,338.09c-0.15,0.15-0.3,0.36-0.46,0.51
			c0.56,1.02,1.07,2.08,1.63,3.1c0.3-0.05,0.56-0.15,0.86-0.2c-0.1-0.86,0-1.83-0.3-2.59C129.26,338.49,128.35,338.34,127.74,338.09
			z M123.02,296.95c0.3,0.2,0.61,0.41,0.91,0.56c0.25-0.61,0.71-1.27,0.71-1.88c0-0.36-0.81-1.12-1.07-1.02
			c-0.56,0.2-1.07,0.71-1.37,1.22C122.15,295.98,122.76,296.59,123.02,296.95z"/>
		<path class="st0" d="M175.48,453.83c-1.93,1.78-3.35,1.47-4.72-0.15c-4.47-5.43-9.7-10.01-15.8-13.71
			c-4.37-2.64-8.13-2.54-12.44,0.05c-6.09,3.71-11.28,8.28-15.8,13.71c-1.32,1.63-2.74,1.78-4.67,0.1
			c5.84-7.01,13.41-11.68,21.08-16.3c-5.13-0.25-10.11-0.1-14.98,1.52c-8.48,2.79-17.17,4.37-26.06,4.37
			c-6.2,0-12.24-1.12-17.98-3.61c-0.97-0.41-1.88-0.91-2.74-1.73c2.34,0.15,4.67,0.25,6.96,0.41c4.82,0.36,9.5-0.1,14.17-1.52
			c9.19-2.79,18.49-5.08,28.14-4.47c5.54,0.36,11.07,1.78,16.56,2.69c0.81,0.15,1.73,0.46,2.44,0.2
			c13.66-4.47,27.38-3.76,40.89,0.36c8.48,2.59,16.96,3.66,25.75,2.13c0.05,0.3,0.15,0.56,0.2,0.86c-3.35,1.12-6.6,2.49-10.06,3.35
			c-10.87,2.74-21.59,1.17-32.15-1.57c-6.04-1.57-11.99-3.45-18.34-3.15c-0.46,0-0.91,0.05-2.13,0.1
			C162.07,442.2,169.64,446.88,175.48,453.83z"/>
		<path class="st0" d="M98.13,378.92c3.86-4.32,7.97-7.31,12.49-9.85c6.6-3.66,13.71-5.43,21.23-5.49
			c13.26-0.05,26.51,0.1,39.72-0.05c5.74-0.05,7.11,4.11,5.64,8.38c-0.71,2.13-2.44,2.69-4.57,2.69
			c-16.25-0.05-32.51-0.15-48.76,0.05c-5.13,0.05-10.26,0.61-15.34,1.37C105.29,376.58,102.09,377.8,98.13,378.92z"/>
		<path class="st0" d="M93.46,384.66c5.43-4.01,11.28-6.45,17.73-7.26c4.67-0.56,9.35-0.76,14.07-0.76c15.74-0.1,31.44,0,47.18-0.05
			c2.34,0,4.06,0.71,4.98,2.95c0.97,2.49,0.81,4.93-1.07,6.91c-0.66,0.66-1.88,1.07-2.84,1.12c-13.87,0.05-27.73,0.15-41.6-0.05
			c-3.05-0.05-6.2-0.66-9.04-1.63c-9.4-3.25-18.79-3.81-28.39-1.17C94.22,384.71,93.97,384.66,93.46,384.66z"/>
		<path class="st0" d="M96.66,386.44c7.82-2.34,15.08-2.39,22.19,0c6.35,2.13,12.75,3.15,19.5,3c11.07-0.25,22.19,0.15,33.32-0.15
			c5.69-0.15,7.57,5.13,5.28,8.79c-0.71,1.12-2.39,2.29-3.61,2.29c-13.41,0.05-26.82-0.1-40.23-0.36c-4.88-0.1-9.24-2.08-13.26-4.88
			c-6.2-4.32-13-7.26-20.62-8.13C98.54,386.95,97.88,386.74,96.66,386.44z"/>
		<path class="st0" d="M107.98,368.36c7.11-11.07,17.01-17.42,30.17-17.78c11.22-0.3,22.5-0.05,33.77-0.05
			c4.57,0,7.11,3.61,5.64,7.97c-0.86,2.49-2.03,3.25-4.88,3.25c-12.8,0-25.6,0-38.4,0c-8.02,0-15.8,1.12-23.01,5.03
			C110.22,367.39,109.1,367.85,107.98,368.36z"/>
		<path class="st0" d="M226.68,379.33c1.27,10.67-1.42,20.57-5.54,30.32c5.84-3.1,9.35-8.53,14.37-12.24
			c5.08-3.71,10.11-7.52,14.68-10.92c-3.5,15.08-18.64,26.97-36.97,31.24C215,404.06,221.96,384.15,226.68,379.33z"/>
		<path class="st0" d="M76.7,409.85c-0.61-1.73-0.91-3.15-1.52-4.37c-4.01-8.28-5.03-17.01-4.47-26.61
			c8.53,11.94,10.41,25.55,13.61,38.7c-13.81-0.1-34.94-18.18-37.13-31.44c9.19,7.52,19.3,14.42,27.83,23.21
			C75.28,409.6,75.73,409.6,76.7,409.85z"/>
		<path class="st0" d="M198.19,427.73c6.35-1.93,12.65-4.11,19.1-5.64c6.5-1.52,12.75-3.56,18.64-7.52
			c-8.13,12.6-21.99,22.09-46.02,14.98c0-0.15-0.1-0.36-0.05-0.41c5.08-4.72,7.62-11.17,11.02-16.96
			c3.25-5.49,7.31-10.26,12.8-13.76c0.1,2.18-3.05,12.65-5.28,15.64c-3.35,4.42-7.11,8.53-10.72,12.8
			C197.93,427.12,198.03,427.42,198.19,427.73z"/>
		<path class="st0" d="M61.71,414.93c5.33,3.2,11.02,5.33,17.07,6.81c6.55,1.63,13,3.71,19.5,5.59c0.41,0.1,0.86-0.05,1.73-0.15
			c-3.81-4.52-8.02-8.38-10.82-13.05c-2.79-4.67-4.16-10.16-5.84-15.49c3.86,1.78,6.81,4.57,9.19,7.82c2.23,3,4.11,6.3,6.09,9.5
			c2.84,4.52,5.64,9.09,8.43,13.56C91.43,436.46,71.36,430.32,61.71,414.93z"/>
		<path class="st0" d="M190.87,287.14c0.15,1.47,0.86,2.13,2.49,1.93c1.12-0.15,2.29-0.05,3.45-0.05c-1.98,3.25-2.29,3.71-5.59,3.76
			c-0.71,0-1.68,0.51-2.13,1.12c-8.28,10.51-13.97,22.35-17.78,35.15c3.35-4.47,6.5-8.99,10.01-13.31
			c5.18-6.35,10.61-12.49,18.34-15.9c3.1-1.37,6.3-2.39,9.8-1.88c-11.28,0.66-17.62,8.58-23.82,16.46
			c-5.59,7.06-9.7,14.98-12.8,23.41c-0.25,0.71-0.56,1.42-0.76,2.18c-0.2,0.81-0.36,1.63-0.2,2.64c1.02-1.37,1.88-2.84,3.05-4.06
			c2.34-2.54,4.88-4.93,7.21-7.42c0.71-0.76,1.68-1.88,1.57-2.59c-0.61-3.15,1.27-4.88,3.25-6.65c-0.71,5.28,0,6.25,5.33,7.36
			c-2.95,2.13-2.95,2.03-6.91,1.68c-0.91-0.1-2.08,0.51-2.84,1.17c-4.62,3.81-7.97,8.58-10.21,14.07c-0.97,2.34-2.13,3.25-4.57,2.9
			c-1.12-0.15-2.29-0.05-3.96-0.05c0.66-3.81,1.07-7.26,1.93-10.67c3.56-14.37,9.75-27.53,18.49-39.51
			c1.22-1.68,2.49-3.35,3.56-5.13c0.46-0.71,1.02-1.93,0.71-2.49c-1.27-2.49-0.66-4.62,0.91-6.65c0.51,0.81,1.07,1.68,1.57,2.54
			L190.87,287.14z"/>
		<path class="st0" d="M243.79,367.04c-2.39-10.21-8.63-18.74-9.65-29.05c-0.2-1.93-0.05-3.91-0.05-6.45
			c4.57,4.16,7.62,8.53,8.94,13.97c0.61,2.39,0.76,4.88,1.17,7.26c0.15,0.96,0.56,1.83,1.42,2.79c0.25-0.71,0.61-1.47,0.71-2.23
			c1.32-7.01,3.96-13.56,7.42-19.81c1.93-3.45,3.05-7.31,4.88-11.12c0.2,2.34,0.66,4.67,0.56,6.96
			C258.57,343.62,251.97,355.46,243.79,367.04z"/>
		<path class="st0" d="M63.75,332.14c-0.25,2.84-0.1,5.84-0.86,8.53c-1.37,4.93-3.3,9.75-5.03,14.58
			c-1.37,3.81-2.84,7.62-4.27,11.38c-10.06-10.41-18.03-34.59-14.63-43.68c2.39,5.08,5.13,10.31,7.36,15.8
			c2.18,5.43,3.86,11.07,6.04,17.42c0.46-2.03,0.91-3.5,1.02-5.03c0.71-7.62,3.71-14.02,9.4-19.15
			C63.14,332.09,63.44,332.14,63.75,332.14z"/>
		<path class="st0" d="M60.75,381.87c-1.42-9.9-0.41-19.5,3.05-28.8c1.88,2.29,3.2,10.11,2.59,19.4
			c-0.46,6.55-1.63,13.05-2.54,19.81c-12.95-9.8-22.4-21.74-24.48-38.5c4.01,11.43,14.53,18.13,20.16,28.34
			C59.94,382.07,60.34,381.97,60.75,381.87z"/>
		<path class="st0" d="M233.23,392.63c-0.76-9.24-1.73-18.03-2.03-26.82c-0.15-4.32,0.41-8.74,2.08-12.8
			c0.25-0.05,0.51-0.05,0.76-0.1c1.02,4.82,2.44,9.6,2.95,14.48c0.51,4.77,0.1,9.65,0.1,14.53c0.2,0.05,0.41,0.1,0.61,0.15
			c1.42-1.88,2.79-3.81,4.22-5.64c1.98-2.49,3.91-4.98,6.04-7.31c3.5-3.81,6.7-7.82,8.69-12.7c0.36-0.91,0.91-1.73,1.52-2.49
			C256.09,370.59,246.64,382.53,233.23,392.63z"/>
		<path class="st0" d="M53.49,296.79c0,10.97,0,21.38,0,31.79c0.2,0.1,0.41,0.2,0.61,0.3c4.47-6.65,8.74-13.51,16-17.98
			c-4.22,11.28-12.29,19.91-18.18,29.97C43.58,326.15,46.58,307.05,53.49,296.79z"/>
		<path class="st0" d="M245.72,340.52c-5.28-5.84-17.07-25.04-18.13-29.56c7.06,4.32,11.33,11.07,15.74,17.73
			c0.25-0.1,0.51-0.2,0.71-0.3c0-10.36,0-20.67,0-31.03c4.11,4.82,5.18,10.61,5.99,16.46C251.46,324.37,249.79,333.92,245.72,340.52
			z"/>
		<path class="st0" d="M169.19,290.04c-4.72,7.97-7.92,16.1-9.85,24.73c4.11-3.56,6.4-8.99,11.68-11.33
			c-7.21,6.4-11.53,14.32-12.9,23.87c3-3.3,5.33-7.36,10.16-8.53c-5.64,4.47-8.02,10.51-8.38,17.62c1.63-2.95,3.25-5.94,4.93-8.89
			c0.25,0.1,0.46,0.2,0.71,0.3c-2.79,6.76-3.96,13.71-3.4,21.13c-2.29,0-4.47,0-6.65,0C150.14,333.72,157.81,300.04,169.19,290.04z"
			/>
		<path class="st0" d="M136.02,402.28c7.82,0,15.24,0,22.86,0c0.2,3.96-0.51,7.62-2.08,11.07c-1.07,2.34-1.22,4.57-0.41,6.91
			c0.56,1.68,0.15,2.74-1.42,3.56c-1.27,0.66-2.39,1.63-3.91,2.64c-0.61-2.95-1.12-5.64-1.83-8.28c-0.3-1.02-1.02-1.98-1.73-2.79
			c-3.25-3.45-6.6-6.81-9.85-10.31C136.98,404.42,136.63,403.45,136.02,402.28z"/>
		<path class="st0" d="M230.08,281.76c9.04,9.4,10.77,21.03,9.24,33.98c-1.17-1.02-2.08-1.88-3.05-2.69
			c-3.2-2.64-6.35-5.33-9.7-7.82c-4.98-3.71-8.79-8.28-11.38-14.63c6.76,5.03,13,9.7,19.6,14.58
			C233.23,297.15,231.66,289.38,230.08,281.76z"/>
		<path class="st0" d="M82.23,290.65c-2.03,5.28-4.98,9.35-8.89,12.65c-2.49,2.08-5.23,3.81-7.72,5.84
			c-2.44,1.98-4.72,4.22-7.06,6.3c-3.5-9.09,1.63-27.98,8.84-33.32c-0.76,3.56-1.63,7.36-2.39,11.17
			c-0.76,3.81-1.47,7.67-2.23,11.83C69.28,300.3,75.53,295.63,82.23,290.65z"/>
		<path class="st0" d="M227.75,292.63c-5.59-2.03-13.46-10.21-17.01-17.57C218.1,276.73,226.83,285.72,227.75,292.63z"/>
		<path class="st0" d="M69.59,292.63c2.54-9.19,9.14-14.07,17.22-17.93C84.06,281.25,74.97,291.41,69.59,292.63z"/>
		<path class="st0" d="M173.15,408.63c-0.66-0.15-1.07-0.2-2.34-0.51c1.78,3.56,3.3,6.55,4.72,9.5c-2.23-1.02-7.21-10.41-7.82-14.98
			c2.69-1.02,3.2-0.81,3.96,1.68c0.2,0.71,0.46,1.47,0.66,2.18C172.64,407.16,172.84,407.82,173.15,408.63z"/>
		<path class="st0" d="M193.26,325.34c0.56,0.25,1.12,0.51,1.78,0.81c-1.32,1.52-3,2.64-4.88,1.93c-1.22-0.51-2.49-1.98-2.84-3.25
			c-0.61-2.34,1.52-3.35,3.3-4.62c0.1,0.51,0.15,0.81,0.2,1.17C190.72,323.2,191.33,324.68,193.26,325.34z"/>
		<path class="st0" d="M190.92,287.19c-0.56-2.23,0-4.22,1.57-5.89c0.41,0.71,0.81,1.42,1.17,2.13l-0.05-0.05
			c-0.1,1.42,0.46,2.18,2.03,1.98c0.91-0.1,1.83,0,2.74,0c-1.32,3.4-3,4.01-6.04,2.34c-0.46-0.25-1.02-0.36-1.47-0.51
			C190.87,287.14,190.92,287.19,190.92,287.19z"/>
		<path class="st0" d="M166.09,402.39c1.07,3.61,2.13,7.06,3.15,10.56c-0.1,0.05-0.15,0.1-0.25,0.15c-1.12-2.23-2.29-4.52-3.56-7.11
			c-0.41,0.76-0.61,1.22-1.07,2.08c-0.61-2.13-1.12-3.76-1.68-5.69C163.95,402.39,165.02,402.39,166.09,402.39z"/>
		<path class="st0" d="M193.26,325.34c-1.88-0.71-2.49-2.13-2.44-4.01c0.91-0.86,1.83-1.73,3.3-3.15c-0.1,1.78-0.15,2.79-0.2,4.06
			c1.12,0.2,2.29,0.46,3.45,0.71c0.1,0.2,0.15,0.36,0.25,0.56C196.15,324.12,194.68,324.73,193.26,325.34z"/>
		<path class="st0" d="M193.67,283.44c-0.61-2.03,0.41-3.45,1.83-4.82c0.91,3.66,0.91,3.66,4.47,3.2c-1.88,3.76-2.39,3.86-6.35,1.57
			L193.67,283.44z"/>
		<path class="st0" d="M200.37,277.29c-0.46,1.07-0.81,2.18-1.42,3.15c-0.2,0.3-1.07,0.25-1.57,0.36c-0.1-0.61-0.46-1.47-0.2-1.83
			c0.66-0.81,1.68-1.42,2.54-2.13C199.96,276.99,200.17,277.14,200.37,277.29z"/>
		<path class="st0" d="M198.95,318.68c-0.51,0.81-0.91,1.78-1.57,2.39c-0.41,0.36-1.32,0.2-2.03,0.25c0.15-0.71,0.05-1.78,0.51-2.13
			c0.71-0.56,1.78-0.71,2.69-1.02C198.64,318.38,198.8,318.53,198.95,318.68z"/>
		<path class="st0" d="M131.7,329.6c1.98,0.51,2.84,1.27,2.79,2.74c-0.1,2.23-2.08,2.18-3.4,2.18c-0.71,0-2.18-1.78-1.98-2.08
			C129.67,331.33,130.79,330.52,131.7,329.6z"/>
		<path class="st0" d="M131.14,324.58c1.02,1.27,2.08,1.98,2.08,2.74c0,2.13-1.93,2.29-3.35,2.29c-0.66,0-1.32-1.27-1.98-1.93
			C128.86,326.76,129.77,325.85,131.14,324.58z"/>
		<path class="st0" d="M122.2,329.25c2.13-1.37,4.47-1.42,4.88,0c0.2,0.81-0.25,2.29-0.91,2.79
			C124.59,333.26,123.63,332.5,122.2,329.25z"/>
		<path class="st0" d="M134.8,334.94c-0.86,1.98-0.25,4.42-2.95,4.37c-0.61,0-1.73-1.52-1.63-2.18
			C130.59,334.73,132.67,335.19,134.8,334.94z"/>
		<path class="st0" d="M138.61,319.24c-0.86-1.17-1.83-2.23-1.73-2.39c0.76-0.86,1.68-1.78,2.74-2.18c0.3-0.15,1.22,1.07,1.83,1.68
			C140.69,317.16,139.88,317.97,138.61,319.24z"/>
		<path class="st0" d="M137.59,310.3c1.27,0,2.74,0.05,2.69,1.68c0,0.66-1.02,1.68-1.78,1.93c-0.71,0.2-1.68-0.41-2.54-0.61
			c0.3-0.81,0.61-1.68,1.02-2.49c0.1-0.25,0.46-0.36,0.71-0.51H137.59z"/>
		<path class="st0" d="M123.88,328.33c-0.91-1.27-1.42-1.93-1.88-2.64c0.97-0.66,1.88-1.57,2.95-1.93c0.41-0.1,1.22,1.12,1.83,1.78
			C125.91,326.35,125.1,327.12,123.88,328.33z"/>
		<path class="st0" d="M128.3,321.22c-0.97-1.12-1.52-1.78-2.13-2.39c0.86-0.71,1.63-1.73,2.59-1.98c0.56-0.15,1.42,1.07,2.18,1.63
			C130.23,319.29,129.47,320.06,128.3,321.22z"/>
		<path class="st0" d="M128.96,325.49c-0.86-1.17-1.37-1.83-1.93-2.49c0.97-0.66,1.88-1.57,2.95-1.93c0.41-0.1,1.22,1.17,1.83,1.78
			C130.99,323.61,130.18,324.37,128.96,325.49z"/>
		<path class="st0" d="M117.33,319.04c-1.07-1.17-1.73-1.88-2.39-2.59c0.76-0.61,1.47-1.73,2.18-1.68c0.81,0.05,1.63,1.07,2.44,1.68
			C119.01,317.11,118.4,317.82,117.33,319.04z"/>
		<path class="st0" d="M127.33,316.96c-0.97-1.22-1.52-1.98-2.08-2.69c0.91-0.61,1.83-1.52,2.84-1.73c0.51-0.1,1.27,1.07,1.93,1.63
			C129.26,314.98,128.5,315.74,127.33,316.96z"/>
		<path class="st0" d="M123.47,323.86c-1.07-1.12-2.08-1.68-2.18-2.34c-0.2-1.88,1.47-1.93,2.69-1.93c0.66,0,1.27,0.91,1.88,1.42
			C125.15,321.83,124.49,322.65,123.47,323.86z"/>
		<path class="st0" d="M118.29,323.51c-1.17-1.27-1.98-2.08-2.74-2.95c0.76-0.51,1.42-1.27,2.23-1.42c1.22-0.25,2.49,0.15,2.29,1.73
			C119.97,321.58,119.16,322.24,118.29,323.51z"/>
		<path class="st0" d="M135.66,327.32c-0.91-1.17-1.42-1.88-1.93-2.54c0.86-0.66,1.68-1.63,2.69-1.88c0.46-0.15,1.27,1.02,1.93,1.63
			C137.59,325.29,136.83,326.05,135.66,327.32z"/>
		<path class="st0" d="M122.56,319.65c-1.02-1.32-1.57-2.03-2.13-2.74c0.86-0.61,1.63-1.52,2.54-1.68c0.56-0.1,1.32,1.02,1.98,1.57
			C124.34,317.57,123.68,318.33,122.56,319.65z"/>
		<path class="st0" d="M132.52,314.98c-0.91-1.12-1.73-1.73-1.83-2.39c-0.15-1.73,1.37-1.93,2.54-1.88
			c0.66,0.05,1.27,0.91,1.93,1.42C134.39,312.95,133.68,313.76,132.52,314.98z"/>
		<path class="st0" d="M134.14,323.26c-0.86-1.27-1.37-1.93-1.88-2.64c0.91-0.61,1.78-1.47,2.79-1.73c0.41-0.1,1.73,1.37,1.63,1.52
			C136.12,321.27,135.31,321.99,134.14,323.26z"/>
		<path class="st0" d="M117.28,314.62c-1.12-1.07-1.83-1.73-2.54-2.39c0.66-0.61,1.37-1.73,1.93-1.63c0.91,0.1,1.68,1.02,2.54,1.57
			C118.65,312.79,118.14,313.5,117.28,314.62z"/>
		<path class="st0" d="M133.28,319.09c-0.86-1.17-1.68-1.78-1.78-2.44c-0.15-1.73,1.22-2.03,2.49-1.83c0.71,0.1,1.27,0.91,1.88,1.42
			C135.16,317.06,134.45,317.87,133.28,319.09z"/>
		<path class="st0" d="M121.7,315.18c-0.81-1.12-1.78-2.18-1.68-2.29c0.66-0.76,1.52-1.63,2.44-1.83c0.51-0.1,1.27,1.07,1.88,1.63
			C123.58,313.4,122.87,314.11,121.7,315.18z"/>
		<path class="st0" d="M126.01,303.45c0.97,1.07,2.03,2.03,1.93,2.23c-0.56,0.86-1.32,1.78-2.23,2.03
			c-0.51,0.15-1.37-0.97-2.08-1.52C124.34,305.43,125,304.67,126.01,303.45z"/>
		<path class="st0" d="M131.7,310.71c-0.91-1.07-1.42-1.68-1.93-2.23c0.81-0.66,1.52-1.63,2.39-1.83c0.56-0.1,1.37,0.91,2.08,1.47
			C133.53,308.83,132.82,309.59,131.7,310.71z"/>
		<path class="st0" d="M127.08,307.51c0.86,1.12,1.88,2.13,1.78,2.23c-0.61,0.76-1.42,1.68-2.29,1.88c-0.51,0.1-1.32-0.96-1.98-1.52
			C125.3,309.39,125.96,308.68,127.08,307.51z"/>
		<path class="st0" d="M124.34,334.07c1.83-1.02,3.2-1.42,3.91,0.15c0.3,0.71-0.15,2.54-0.61,2.64
			C125.3,337.63,126.06,334.89,124.34,334.07z"/>
		<path class="st0" d="M137.9,305.28c-0.86,0.46-1.68,1.07-2.59,1.22c-0.41,0.05-0.97-1.02-1.42-1.52c0.71-0.56,1.42-1.32,2.23-1.52
			c0.51-0.1,1.22,0.66,1.83,1.02C137.9,304.72,137.9,304.97,137.9,305.28z"/>
		<path class="st0" d="M117.18,310.3c-0.91-0.96-1.47-1.57-2.08-2.23c0.61-0.46,1.32-1.37,1.83-1.27c0.76,0.15,1.42,0.97,2.13,1.52
			C118.55,308.88,118.04,309.44,117.18,310.3z"/>
		<path class="st0" d="M137.64,310.25c-0.86-0.3-1.68-0.61-2.54-0.91c0.25-0.56,0.36-1.52,0.76-1.68c0.81-0.3,2.13-0.51,2.59-0.1
			c1.22,1.17-0.15,1.93-0.86,2.74C137.59,310.3,137.64,310.25,137.64,310.25z"/>
		<path class="st0" d="M141.96,319.19c-0.46,0.76-0.76,1.73-1.42,2.29c-0.41,0.41-1.27,0.36-1.93,0.51c0-0.81-0.36-2.03,0-2.34
			c0.76-0.66,1.93-0.86,2.95-1.22C141.71,318.68,141.81,318.94,141.96,319.19z"/>
		<path class="st0" d="M125.25,299.99c0.76,0.96,1.22,1.52,1.68,2.08c-0.76,0.51-1.42,1.27-2.23,1.47c-0.41,0.1-1.07-0.86-1.63-1.32
			C123.68,301.57,124.29,300.96,125.25,299.99z"/>
		<path class="st0" d="M121.75,306.8c0.71,0.81,1.17,1.27,1.63,1.78c-0.71,0.56-1.32,1.37-2.08,1.52c-0.41,0.1-1.07-0.91-1.57-1.37
			C120.27,308.17,120.88,307.61,121.75,306.8z"/>
		<path class="st0" d="M130.99,302.58c0.66,0.86,1.07,1.37,1.47,1.93c-0.71,0.56-1.37,1.32-2.18,1.52c-0.36,0.1-1.02-0.91-1.52-1.37
			C129.42,304.06,130.08,303.45,130.99,302.58z"/>
		<path class="st0" d="M123.83,305.38c-1.32,0.56-2.03,1.12-2.64,1.07c-0.51-0.05-0.97-0.81-1.47-1.27
			c0.61-0.46,1.17-1.17,1.78-1.27C122,303.85,122.61,304.56,123.83,305.38z"/>
		<path class="st0" d="M123.58,301.16c-1.32,0.56-2.03,1.12-2.64,1.07c-0.51-0.05-0.97-0.81-1.47-1.27
			c0.61-0.46,1.17-1.17,1.78-1.27C121.8,299.69,122.36,300.4,123.58,301.16z"/>
		<path class="st0" d="M135.97,331.38c-1.78-3-1.32-3.96,1.88-4.32C137.19,328.49,136.68,329.71,135.97,331.38z"/>
		<path class="st0" d="M119.82,304.77c-1.22,0.66-1.88,1.22-2.44,1.17c-0.56-0.05-1.07-0.76-1.57-1.17
			c0.46-0.46,0.97-1.27,1.42-1.32C117.94,303.45,118.6,304.11,119.82,304.77z"/>
		<path class="st0" d="M119.82,301.82c-1.22,0.66-1.88,1.22-2.44,1.17c-0.56-0.05-1.07-0.76-1.57-1.17
			c0.46-0.46,0.97-1.27,1.42-1.32C117.94,300.5,118.6,301.11,119.82,301.82z"/>
		<path class="st0" d="M120.78,298.88c-1.22,0.66-1.88,1.22-2.44,1.17c-0.56-0.05-1.07-0.76-1.57-1.17
			c0.46-0.46,0.97-1.27,1.42-1.32C118.85,297.56,119.51,298.17,120.78,298.88z"/>
		<path class="st0" d="M131.6,301.01c-1.17,0.71-1.73,1.37-2.39,1.47c-0.51,0.05-1.07-0.66-1.57-1.07c0.56-0.51,1.02-1.32,1.68-1.47
			C129.72,299.79,130.43,300.45,131.6,301.01z"/>
		<path class="st0" d="M133.23,303.29c-0.3-0.51-1.02-1.27-0.86-1.47c0.41-0.61,1.12-1.17,1.83-1.42c0.3-0.1,1.32,0.81,1.27,1.12
			c-0.2,0.81-0.76,1.52-1.22,2.29C133.89,303.65,133.53,303.5,133.23,303.29z"/>
		<path class="st0" d="M126.83,298.57c-1.32,0.61-2.03,1.12-2.69,1.17c-0.41,0-0.86-0.71-1.32-1.12c0.61-0.46,1.22-1.07,1.93-1.22
			C125.1,297.3,125.71,297.91,126.83,298.57z"/>
		<path class="st0" d="M127.74,338.09c0.61,0.25,1.52,0.36,1.73,0.81c0.36,0.76,0.25,1.73,0.3,2.59c-0.3,0.05-0.61,0.15-0.86,0.2
			c-0.56-1.02-1.07-2.08-1.63-3.1C127.49,338.44,127.64,338.29,127.74,338.09z"/>
		<path class="st0" d="M123.02,296.95c-0.3-0.36-0.86-0.97-0.81-1.12c0.36-0.51,0.81-1.02,1.37-1.22c0.2-0.1,1.07,0.66,1.07,1.02
			c0,0.61-0.46,1.27-0.71,1.88C123.68,297.35,123.37,297.15,123.02,296.95z"/>
		<path class="st0" d="M120.63,298.27c-0.3-0.36-0.86-0.96-0.81-1.12c0.36-0.51,0.81-1.02,1.37-1.22c0.2-0.1,1.07,0.66,1.07,1.02
			c0,0.61-0.46,1.27-0.71,1.88C121.24,298.67,120.94,298.47,120.63,298.27z"/>
		<path class="st0" d="M127.99,299.23c-0.3-0.36-0.86-0.96-0.81-1.12c0.36-0.51,0.81-1.02,1.37-1.22c0.2-0.1,1.07,0.66,1.07,1.02
			c0,0.61-0.46,1.27-0.71,1.88C128.6,299.59,128.3,299.38,127.99,299.23z"/>
		<path class="st0" d="M125.76,297.35c-0.3-0.36-0.86-0.97-0.81-1.12c0.36-0.51,0.81-1.02,1.37-1.22c0.2-0.1,1.07,0.66,1.07,1.02
			c0,0.61-0.46,1.27-0.71,1.88C126.37,297.76,126.06,297.56,125.76,297.35z"/>
		<path class="st0" d="M130.53,299.89c-0.3-0.36-0.86-0.96-0.81-1.12c0.36-0.51,0.81-1.02,1.37-1.22c0.2-0.1,1.07,0.66,1.07,1.02
			c0,0.61-0.46,1.27-0.71,1.88C131.19,300.25,130.84,300.1,130.53,299.89z"/>
		<path class="st0" d="M129.92,297.15c-0.2-0.3-0.66-0.71-0.61-0.81c0.25-0.41,0.61-0.76,1.02-0.91c0.15-0.05,0.81,0.51,0.81,0.76
			c0,0.46-0.36,0.91-0.56,1.42C130.38,297.45,130.18,297.3,129.92,297.15z"/>
	</g>
</g>
</svg>
