<?xml version="1.0" encoding="utf-8"?>
<!-- Generator: Adobe Illustrator 24.1.0, SVG Export Plug-In . SVG Version: 6.00 Build 0)  -->
<svg version="1.1" id="Calque_1" xmlns="http://www.w3.org/2000/svg" xmlns:xlink="http://www.w3.org/1999/xlink" x="0px" y="0px"
	 viewBox="0 0 612 792" style="enable-background:new 0 0 612 792;" xml:space="preserve">
<style type="text/css">
	.st0{fill:#FFFFFF;}
</style>
<g id="_x35_efoFV_2_">
	<g>
		<path class="st0" d="M305.91,570.67c-87.64,0-175.28-0.18-262.86,0.18c-11.18,0.06-18.29-7.47-18.23-18.59
			C25.12,458.62,25,364.93,25,271.29c0-16.29-0.06-32.59,0.06-48.82c0.06-10.35,6.06-16.29,16.35-16.29c176.51,0,353.08,0,529.6,0
			c9.65,0,16.17,6.18,16.17,15.41c0,110.7,0,221.33-0.06,332.03c0,11.47-5.76,17.06-17.23,17.06
			C481.89,570.67,393.9,570.67,305.91,570.67z M305.85,281.35c-19.59-17.35-42-28.94-67.46-34.11c-25.29-5.12-50.35-3.76-74.88,4.53
			c-24.7,8.35-45.76,22.35-62.88,42.05c-43.7,50.11-48.76,126.46-5.23,182.81c21.41,27.7,49.52,45.7,83.82,52.7
			c47.64,9.7,90.05-2.24,126.81-33.64c66.41,57.82,158.34,43.82,206.98-14.06c45.82-54.52,45.41-133.46-1.06-187.51
			C462.72,236.88,371.26,224.23,305.85,281.35z M532.71,475.15c2-3.24,4-5.12,3.82-6.71c-0.24-1.59-2.82-4.12-4.06-4
			c-1.65,0.18-4.12,2.53-4.23,4.18C528.07,470.15,530.36,471.97,532.71,475.15z"/>
		<path class="st0" d="M88.93,352.34c7.76,0,14.88,0,22.88,0c0,13.88,0,27.59,0,41.35c0.47,0.06,0.94,0.12,1.41,0.18
			c4.23-12.41,8.65-24.76,12.65-37.23c1.06-3.35,2.35-4.71,5.94-4.53c6.35,0.29,12.76,0.06,19.94,0.06
			c-4,24.35-7.94,48.11-11.94,72.46c-5.06,0-10.18,0-15.82,0c2.59-16.29,5.12-32.59,7.71-48.82c-0.29-0.06-0.59-0.18-0.88-0.24
			c-3.76,10.53-7.59,21.06-11.35,31.59c-1.71,4.76-3.82,9.47-5.06,14.35c-1.53,6-6.06,3.24-9.35,3.53c-3.88,0.35-2.94-3.06-3-5.12
			c-0.12-14.76-0.06-29.53-0.06-44.29c-0.65,0-1.24-0.06-1.88-0.06c-2.76,16.29-5.59,32.59-8.41,49.29c-4.82,0-9.47,0-14.82,0
			C80.88,400.8,84.87,376.75,88.93,352.34z"/>
		<path class="st0" d="M512.24,371.69c1.18-6.71,2.24-12.94,3.35-19.29c5.23,0,10.18,0,15.23,0c-3.65,23.17-7.18,46.11-10.94,68.99
			c-0.24,1.41-2.53,3.35-4.12,3.59c-3.35,0.53-6.88,0.18-10.7,0.18c-0.24-1.59-0.41-2.88-0.53-3.82c-3.76,1.47-7.29,3.76-11.06,4.23
			c-14.29,1.88-20-8.59-21.47-19.88c-1.24-9.53,0.65-18.82,5.65-27.29C486.31,363.45,498.19,361.04,512.24,371.69z M509.19,392.57
			c-1.06-7.88-3.12-11.88-7.47-12.82c-4.94-1.06-9.65,2.12-11.7,9.12c-1.29,4.47-1.94,9.41-1.41,13.94
			c0.35,2.76,3.06,6.06,5.65,7.47c3.82,2.12,7.76-0.18,9.59-3.76C506.13,402.16,507.48,397.22,509.19,392.57z"/>
		<path class="st0" d="M428.55,387.16c1.35-6.47,0-8.59-6-8.53c-6.29,0.06-12.59,0.76-19.17,1.18c0,0.06-0.06-0.59,0-1.18
			c1.76-12.18,1.76-12.29,13.94-14c3.41-0.47,6.94-0.53,10.41-0.24c11.06,1.06,17.7,7.53,16.82,18.12
			c-1.18,14.06-3.65,28.06-5.59,42.23c-4.53,0-8.47,0-12.76,0c-0.24-1.29-0.53-2.59-0.76-4.06c-0.53,0.18-1.06,0.35-1.47,0.53
			c-3.06,1.53-6,3.71-9.23,4.41c-8.41,1.88-15.06-1.29-18-7.76c-3.47-7.76-0.88-19.12,5.53-24.53c6.12-5.12,13.35-6.29,21-6.18
			C424.96,387.16,426.78,387.16,428.55,387.16z M426.31,398.86c-6.53-0.94-12.12,0.18-14.23,3.88c-1.18,2.12-1.71,5.94-0.53,7.71
			c1.06,1.65,4.94,2.59,7.23,2.12C424.14,411.45,427.02,405.45,426.31,398.86z"/>
		<path class="st0" d="M154.34,379.81c0.47-3.29,0.76-6.88,1.53-10.41c0.18-1,1.47-2.18,2.53-2.47c8.12-2.29,16.29-4,24.7-1.65
			c10.76,3,13.23,10.06,12.59,18.41c-0.94,12.47-3.35,24.88-5.06,37.29c-0.41,3.12-1.88,4.94-5,4.12c-3.29-0.88-8.94,3.29-9.47-3.53
			c-4.23,1.41-8.53,3.71-13,4.18c-11.47,1.24-18.06-6.12-16.65-17.76c1.59-12.76,9.53-20.12,22.47-20.65c3.47-0.12,6.94,0,10.29,0
			c2.12-5.71,0.41-8.76-5.29-8.71C167.69,378.69,161.4,379.34,154.34,379.81z M178.75,399.86c-0.59-0.59-1.18-1.24-1.76-1.82
			c-3.53,0.59-7.47,0.35-10.41,2c-2.47,1.35-4.23,4.71-5.18,7.59c-0.41,1.18,1.82,4.65,3.12,4.76c2.76,0.35,6.76,0.18,8.35-1.59
			C175.63,407.86,176.87,403.57,178.75,399.86z"/>
		<path class="st0" d="M279.91,400.27c-0.18,8.12,3.47,12.35,10.82,12.18c6.06-0.12,12.12-1.41,18.65-2.29
			c-0.71,3.76-1.35,8-2.35,12.18c-0.24,0.94-1.65,2.18-2.59,2.18c-7.76,0.29-15.76,1.59-23.23,0.24
			c-10.59-1.94-16.59-11.12-16.88-22c-0.35-13.59,2.65-25.76,14.06-34.41c7.23-5.47,15.29-5.65,23.23-2.06
			c7.76,3.53,11.06,10.29,11,18.59c-0.06,4.88-0.65,9.76-1.12,15.29C300.85,400.27,290.5,400.27,279.91,400.27z M298.15,388.16
			c-0.12-6.88-2.35-10.35-6.71-10.35c-3.88,0-9.59,2.59-9.88,10.35C286.91,388.16,292.33,388.16,298.15,388.16z"/>
		<path class="st0" d="M396.9,369.75c-3.71-1.18-6.88-2.76-10.23-3.18c-10.12-1.29-17.12,2.59-20.35,12.41
			c-2,6-3.12,12.82-2.47,19.06c1.18,10.7,8.71,14.94,19.23,12.35c2.29-0.53,4.47-1.35,7.82-2.41c-0.94,5.41-1.53,10.29-2.76,15.06
			c-0.29,1.12-2.71,2.12-4.29,2.35c-23.06,4.06-36.47-7.12-36.47-30.88c0-13.65,3.35-26.17,14.06-35.94
			c10.53-9.53,24-9.59,35.7-5.18c1.06,0.41,2,2.82,1.88,4.18C398.67,361.57,397.73,365.51,396.9,369.75z"/>
		<path class="st0" d="M235.98,365.51c-0.59,4.71-1.12,8.82-1.71,13.06c-3.23,0-6.23,0-9.23,0c-3.82,0-8.76-0.76-9.23,4.18
			c-0.24,2.06,3.71,5.23,6.35,6.71c9.76,5.41,13.12,12.59,10.47,23.06c-1.88,7.47-7,11.94-14.06,12.7
			c-8.35,0.94-16.88,0.12-25.82,0.06c0.94-5.82,1.65-10.06,2.24-13.82c6.12,0.41,11.65,1.18,17.17,0.94c2-0.06,4.47-2.18,5.53-4
			c0.53-0.88-1.59-3.65-3-5.06c-1.24-1.24-3.12-1.82-4.71-2.71c-9.41-5.18-12.35-11.18-10.47-21.53
			c1.41-7.88,6.82-12.41,16.65-13.88c2.35-0.35,4.71-0.88,7.06-0.82C227.21,364.51,231.15,365.04,235.98,365.51z"/>
		<path class="st0" d="M244.57,356.87c5.35,0,10.23,0,15.29,0c-0.41,2.76-0.82,5.29-1.29,8.18c2.35,0.24,4.47,0.47,7.18,0.76
			c-0.59,4.76-1.12,9.41-1.65,14.23c-2.88,0.18-5.53,0.29-8.18,0.47c-1.18,7.06-2.35,13.82-3.53,20.65
			c-1.65,9.41-1.29,9.88,8.53,10.7c-0.41,3.53-0.76,7.06-1.29,10.59c-0.12,0.76-0.82,1.82-1.47,2.06
			c-5.59,1.71-11.35,3.18-16.88,0.29c-5-2.59-6.23-7.47-5.53-12.65c1.88-13.29,3.88-26.59,6-39.88
			C242.57,367.1,243.62,361.98,244.57,356.87z"/>
		<path class="st0" d="M335.67,372.69c4.18-4.53,7.47-8.65,13.65-7.18c-1.47,4.94-2.88,9.88-4.47,14.76c-0.29,0.94-1,2.41-1.59,2.47
			c-8.18,0.47-8.41,7.23-9.65,12.59c-2.24,9.88-3.71,20-5.47,30c-5.35,0-10.23,0-15.65,0c1.65-10.65,3.29-21,4.94-31.41
			c1.29-7.88,2.94-15.76,3.82-23.7c0.41-3.82,1.76-5.12,5.41-4.82c2.88,0.24,5.82,0.06,9,0.06
			C335.67,367.75,335.67,369.69,335.67,372.69z"/>
		<path class="st0" d="M456.78,425.21c-4.82,0-9.71,0-15.29,0c3.18-19.94,6.35-39.58,9.53-59.46c4.76,0,9.29,0,14.35,0
			c-0.35,2.29-0.65,4.35-1.06,7c4.47-3.18,7.23-9.35,13.88-7.12c-1.47,5.12-2.76,10.12-4.41,15.12c-0.29,0.88-1.59,2-2.59,2.12
			c-4.41,0.47-6.29,3.47-7.06,7.18C461.6,401.51,459.31,413.04,456.78,425.21z"/>
		<path class="st0" d="M266.45,341.99c2.35-4.65,4.23-8.76,6.53-12.59c0.71-1.24,2.71-2.35,4.12-2.35c19.94-0.18,39.82-0.18,59.76,0
			c1.41,0,3.41,1.29,4,2.53c1.88,3.88,3.18,8,4.82,12.41C319.2,341.99,293.21,341.99,266.45,341.99z"/>
		<path class="st0" d="M340.03,449.45c-2.65,4.88-4.94,9.53-7.71,13.94c-0.65,1-2.76,1.53-4.23,1.59
			c-14.59,0.12-29.23,0.18-43.82-0.06c-1.88-0.06-4.29-1.59-5.41-3.23c-2.59-3.65-4.47-7.76-6.94-12.23
			C294.85,449.45,317.15,449.45,340.03,449.45z"/>
		<path class="st0" d="M331.14,311.4c-16.17,0-31.76,0-48.17,0c3.18-4.88,6-9.41,9.12-13.76c0.65-0.94,2.47-1.29,3.82-1.35
			c3.82-0.18,7.76,0.53,11.47-0.18c10.29-1.88,16.94,2.53,21.35,11.35C329.26,308.58,330.03,309.64,331.14,311.4z"/>
		<path class="st0" d="M320.62,480.97c-5.18,4.23-10.35,8.41-16.06,13.06c-3.41-3.59-8.12-8.47-13.59-14.23c10.47,0,19.53,0,28.59,0
			C319.91,480.21,320.26,480.62,320.62,480.97z"/>
	</g>
</g>
</svg>
