<?xml version="1.0" encoding="utf-8"?>
<!-- Generator: Adobe Illustrator 24.1.0, SVG Export Plug-In . SVG Version: 6.00 Build 0)  -->
<svg version="1.1" id="Calque_1" xmlns="http://www.w3.org/2000/svg" xmlns:xlink="http://www.w3.org/1999/xlink" x="0px" y="0px"
	 viewBox="0 0 612 792" style="enable-background:new 0 0 612 792;" xml:space="preserve">
<style type="text/css">
	.st0{fill:#FFFFFF;}
	.st1{fill:#A8AAB1;}
</style>
<g>
	
		<ellipse transform="matrix(1 -7.691791e-03 7.691791e-03 1 -2.4481 1.9377)" class="st0" cx="250.69" cy="319.24" rx="38.02" ry="38.02"/>
	<path class="st0" d="M347.44,284.57h16.84v39.49c0,4.55-0.87,8.81-2.61,12.78c-1.74,3.97-4.09,7.48-7.04,10.53
		c-2.95,3.05-6.44,5.45-10.46,7.19c-4.02,1.74-8.3,2.61-12.85,2.61c-4.55,0-8.81-0.87-12.78-2.61c-3.97-1.74-7.48-4.14-10.52-7.19
		c-3.05-3.05-5.45-6.58-7.19-10.6c-1.74-4.01-2.61-8.3-2.61-12.85v-39.35h16.84v39.49c0,2.23,0.44,4.31,1.31,6.24
		c0.87,1.94,2.03,3.63,3.49,5.08c1.45,1.45,3.17,2.59,5.15,3.41c1.98,0.82,4.09,1.23,6.32,1.23c2.22,0,4.3-0.41,6.24-1.23
		c1.93-0.82,3.63-1.96,5.08-3.41c1.45-1.45,2.61-3.14,3.48-5.08c0.87-1.94,1.31-4.02,1.31-6.24V284.57z"/>
	<path class="st0" d="M374.74,284.57h17.13v4.07c2.23-2.61,4.59-4.5,7.12-5.66c2.51-1.16,5.42-1.74,8.71-1.74
		c4.94,0,9.41,0.99,13.43,2.97c4.01,1.99,7.52,4.67,10.52,8.06c3.1-3.39,6.83-6.07,11.18-8.06c4.36-1.98,8.95-2.97,13.8-2.97
		c4.55,0,8.83,0.87,12.85,2.61c4.02,1.74,7.5,4.12,10.45,7.11c2.95,3,5.3,6.51,7.04,10.53c1.74,4.02,2.61,8.3,2.61,12.85l0.15,42.83
		H472.6l-0.14-42.83c0-2.13-0.41-4.16-1.23-6.1c-0.82-1.94-1.96-3.63-3.41-5.08c-1.45-1.45-3.15-2.61-5.08-3.48
		c-1.94-0.87-3.97-1.31-6.1-1.31c-2.23,0-4.28,0.44-6.17,1.31c-1.89,0.87-3.56,2.03-5.01,3.48c-1.45,1.45-2.59,3.15-3.41,5.08
		c-0.82,1.94-1.23,3.97-1.23,6.1l0.14,42.83h-17.13l-0.15-42.83c0-2.23-0.41-4.31-1.24-6.24c-0.82-1.93-1.96-3.63-3.41-5.08
		c-1.45-1.45-3.18-2.59-5.16-3.41c-1.99-0.82-4.04-1.23-6.17-1.23c-2.23,0-4.28,0.44-6.17,1.31c-1.89,0.87-3.56,2.06-5.01,3.56
		c-1.45,1.5-2.59,3.22-3.41,5.15c-0.82,1.94-1.23,3.92-1.23,5.96l0.14,42.83h-17.13L374.74,284.57z"/>
	<path class="st0" d="M499.75,320.72c0-5.52,1.04-10.67,3.12-15.46c2.08-4.79,4.91-8.95,8.49-12.49c3.58-3.53,7.77-6.34,12.56-8.42
		c4.79-2.08,9.95-3.12,15.47-3.12c5.52,0,10.67,1.04,15.46,3.12c4.79,2.08,8.95,4.89,12.49,8.42c3.53,3.53,6.34,7.7,8.42,12.49
		c2.08,4.79,3.12,9.95,3.12,15.46v36.44h-16.85v-4.06c-6.68,4.74-14.23,7.11-22.65,7.11c-6.01,0-11.45-1.02-16.33-3.05
		c-4.89-2.03-9.05-4.84-12.49-8.42c-3.44-3.58-6.1-7.77-7.98-12.56C500.7,331.39,499.75,326.24,499.75,320.72 M516.6,320.72
		c0,3.1,0.6,6.03,1.82,8.79c1.22,2.76,2.84,5.15,4.88,7.19c2.04,2.03,4.44,3.65,7.21,4.86c2.77,1.21,5.71,1.82,8.81,1.82
		c3.11,0,6.04-0.56,8.81-1.67c2.77-1.11,5.2-2.68,7.28-4.72c2.09-2.03,3.72-4.43,4.88-7.19c1.17-2.76,1.75-5.78,1.75-9.07
		c0-3.1-0.61-6.02-1.82-8.79c-1.21-2.76-2.84-5.15-4.88-7.19c-2.04-2.03-4.44-3.65-7.21-4.87c-2.77-1.21-5.7-1.81-8.81-1.81
		c-3.11,0-6.04,0.61-8.81,1.81c-2.77,1.21-5.17,2.83-7.21,4.87c-2.04,2.03-3.67,4.43-4.88,7.19
		C517.2,314.7,516.6,317.62,516.6,320.72"/>
	<polygon class="st0" points="199.47,340.79 199.47,357.31 136.51,357.31 136.51,254.47 157.56,254.47 157.56,340.79 	"/>
	<polygon class="st0" points="111.42,254.48 125.67,254.48 125.67,357.29 109.54,357.29 109.54,286.79 85.49,322.63 61.56,287.23 
		61.56,357.29 45.44,357.29 45.44,254.48 59.68,254.48 85.49,292.96 	"/>
	<path class="st0" d="M323.06,407.6c0.66-0.59,2.31-1.13,3.31-1.42c-3.82-5.66-11.39-9.93-18.67-11.91
		C313.84,397.67,319.24,402.24,323.06,407.6"/>
	<path class="st0" d="M255.32,392.51c-3.27-7.59,1.42-16.56,7.68-19.76c6.57-3.35,16.56-5.08,20.76-13.33
		c-0.68,1.35,0.07,4.22,0.19,5.62c0.22,2.54,0.16,5.06-0.2,7.61c-1.12,7.88-4.25,17.15-9.34,22.42c-4.69,4.86-13.32,5.99-17.66-0.03
		C256.17,394.22,255.7,393.38,255.32,392.51"/>
	<path class="st0" d="M237.19,382.15c-4.15-3.25-8.48-5.82-12.85-7.74c6.03,0.37,12.58,1.66,18.34,6.16
		c0.98,0.77,1.75,2.7,2.65,3.54c-0.82,1.06-1.68,2.03-2.59,2.91C241.01,385.33,239.16,383.69,237.19,382.15"/>
	<path class="st0" d="M238.82,376.53c-0.39-3.06-1.6-6.12-3.56-8.56c-9.07-11.31-24.15,3.83-35.02-2.73
		c1.87,1.14,2.79,5.19,3.88,7.16c1.53,2.76,3.35,5.28,5.4,7.56c5.06,5.62,12.35,11.18,19.81,10.47
		C236.73,389.71,239.65,383.1,238.82,376.53"/>
	<g>
		<path class="st1" d="M245.28,350.08c0.99-0.65,1.88-1.51,2.63-2.61c3.29-4.85,3.38-10.59,0.78-15.63
			c-1.93-3.73-4.5-6.98-6.31-10.8c-1.15-2.42-2.82-8.22-2.03-11.07c-0.54,1.93-2.21,3.22-3.23,4.79c-1.16,1.77-2.04,3.85-2.82,5.87
			c-2.98,7.73-6,19.49-1.07,26.85C236.06,351.72,241.38,352.63,245.28,350.08"/>
		<path class="st1" d="M259.65,337.97c3.71,1.47,8.49-0.29,11.37-3.8c5.3-6.45,3.46-17.88,10.69-23.29
			c-0.93,0.69-3.01,0.2-4.01,0.17c-1.82-0.05-3.61,0.16-5.41,0.64c-7.69,2.04-21.33,9.75-17.07,21.38
			C256.17,335.66,257.77,337.23,259.65,337.97"/>
	</g>
	<path class="st0" d="M240.28,335.25c1.46,7.6,4.66,15.06,9.48,21.55c-0.97,0.76-1.9,1.61-2.81,2.55
		C241.59,352.45,239.3,343.55,240.28,335.25"/>
	<path class="st0" d="M244.95,402.76c1.12,1.06,2.2,4.22,2.77,5.69c10.15-4.13,17.56-14.55,20.83-24.35
		C262.64,391.96,254.55,398.56,244.95,402.76"/>
	<path class="st0" d="M270.14,441.24c-10.61-13.21-23.23-33.14-23.43-55.16c-0.2-22.24,6.38-42.37,16.93-56.23
		c-13.57,13.26-22.54,37.12-22.29,64.12c0.17,18.14,4.47,34.62,11.46,47.25L270.14,441.24z"/>
	<path class="st0" d="M331.55,397.24c2.63,1.66,6.8,1.17,8.79-1.77c1.78-2.62,3.05-6.86,6.8-8.06c-0.61,0.2-1.8-0.36-2.39-0.52
		c-1.07-0.3-2.14-0.46-3.25-0.5c-3.97-0.15-12.27,0.79-12.28,6.52C329.21,394.91,330.17,396.37,331.55,397.24"/>
	<path class="st0" d="M327.73,378.15c2.88,0.08,6.27-2.41,6.86-5.89c0.53-3.09,0.01-7.3,2.76-10.18c-0.45,0.47-1.67,0.59-2.24,0.75
		c-1.03,0.28-2.02,0.68-2.98,1.2c-3.45,1.86-10.21,6.8-8.05,11.63C324.84,377.35,326.21,378.1,327.73,378.15"/>
	<path class="st0" d="M329.77,397.65c3.09-3.64,6.21-6.75,9.27-9.32c-3.91,1.64-8.26,4.16-12.56,9.22
		c-0.74,0.87-1.49,2.65-2.18,3.55c0.38,0.71,0.79,1.33,1.25,1.87C326.9,401.15,328.31,399.37,329.77,397.65"/>
	<path class="st0" d="M329.48,372.2c-2.66,3.67-4.87,8.2-6.31,13.21c-0.53-0.21-1.08-0.37-1.66-0.48
		C322.98,379.49,325.97,374.88,329.48,372.2"/>
	<path class="st0" d="M318.31,398.93c1.56-4.74-1.9-10.05-5.59-11.73c-3.85-1.75-9.46-2.36-12.35-7.21c0.47,0.8,0.26,2.58,0.29,3.45
		c0.2,5.66,1.92,11.67,5.19,15.72c2.77,3.43,8.34,6.5,11.56,1.65C317.8,400.19,318.1,399.56,318.31,398.93"/>
	<path class="st0" d="M316.61,373.5c-2.88,1.18-6.07-1.79-7.07-4.87c-1.04-3.21-1.38-7.86-4.3-10.35c0.48,0.4,1.56,0.27,2.08,0.31
		c3.42,0.28,7.05,1.84,9.48,4.62c2.06,2.36,3.89,7.02,0.94,9.57C317.37,373.1,316.99,373.34,316.61,373.5"/>
	<path class="st0" d="M310.17,437.7c6.04-9.07,13.16-22.62,13.03-37.07c-0.13-14.59-4.19-27.55-10.49-36.24
		c8.06,8.18,13.55,23.49,13.71,41.21c0.11,11.91-2.21,22.87-6.15,31.42L310.17,437.7z"/>
	<path class="st0" d="M389.6,406.18c1.91,2.02,5.31,2.02,7.26-0.74c1.74-2.47,3.26-6.67,6.4-7.44c-0.51,0.12-1.39-0.59-1.85-0.83
		c-0.82-0.44-1.67-0.74-2.55-0.91c-3.17-0.63-9.93-0.68-10.62,5.2C388.01,403.51,388.6,405.13,389.6,406.18"/>
	<path class="st0" d="M379.8,419.07c-1.05,3.78-4.82,4.67-7.32,3.29c-2.6-1.45-5.64-4.7-8.95-3.7c0.54-0.16,1.12-1.35,1.47-1.84
		c2.28-3.19,5.46-5.61,8.66-5.88c2.71-0.23,6.67,1.54,6.41,6.45C380.03,418,379.94,418.56,379.8,419.07"/>
	<path class="st0" d="M378.61,396.02c-2.13,1.35-4.78-1.3-5.76-4.22c-1.02-3.05-1.59-7.53-4-9.74c0.4,0.36,1.22,0.15,1.62,0.16
		c2.64,0.03,5.54,1.28,7.59,3.81c1.74,2.15,3.46,6.54,1.37,9.22C379.17,395.58,378.9,395.83,378.61,396.02"/>
	<path class="st0" d="M387.23,409.08c2.19-2.88,4.41-5.36,6.6-7.44c-2.86,1.43-6.03,3.55-9.07,7.55c-0.52,0.68-1.02,2.05-1.5,2.76
		c0.3,0.5,0.63,0.95,1,1.32C385.2,411.84,386.19,410.44,387.23,409.08"/>
	<path class="st0" d="M382.87,421.56c0.33-0.5,1.6-1.29,2.18-1.68c-3.17-2.69-8.8-3.63-13.6-3.32
		C375.73,417.37,379.74,419.06,382.87,421.56"/>
	<path class="st0" d="M374.19,441.43c4.2-7.08,9.05-17.55,8.46-28.3c-0.6-10.86-4.08-20.28-9.08-26.4
		c6.3,5.65,10.93,16.75,11.66,29.92c0.49,8.86-0.87,17.15-3.51,23.72L374.19,441.43z"/>
	<path class="st0" d="M300.51,442.74c52.42-1.6,101.37,6.56,142.68,21.96c-24.33-19.46-76.9-31.85-137.72-29.99
		c-52.72,1.62-99.04,13.55-126.06,30.34C215.65,452.06,256.82,444.08,300.51,442.74"/>
</g>
</svg>
