<?xml version="1.0" encoding="utf-8"?>
<!-- Generator: Adobe Illustrator 24.1.0, SVG Export Plug-In . SVG Version: 6.00 Build 0)  -->
<svg version="1.1" id="Calque_1" xmlns="http://www.w3.org/2000/svg" xmlns:xlink="http://www.w3.org/1999/xlink" x="0px" y="0px"
	 viewBox="0 0 612 792" style="enable-background:new 0 0 612 792;" xml:space="preserve">
<style type="text/css">
	.st0{fill:#FFFFFF;}
</style>
<g id="uaNwNk.tif_1_">
	<g>
		<path class="st0" d="M24.82,341.87c10.66,0,21.37-0.05,32.04-0.05c0.15,0,0.25,0.05,0.49,0.1c0,28.78,0,57.61,0,86.63
			c-0.54,0-1.09,0-1.63,0c-9.68,0-19.4,0-29.08,0c-0.59,0-1.23,0.05-1.83,0.1C24.82,399.73,24.82,370.8,24.82,341.87z"/>
		<path class="st0" d="M265.23,492.14c-2.02-0.74-4.1-1.28-5.43-3.46c0.64-0.49,1.28-0.94,2.02-1.48c1.83,2.42,4.15,3.26,6.96,2.47
			c1.88-0.54,3.11-1.97,3.21-3.65c0.1-1.68-0.79-3.11-2.62-3.9c-1.38-0.59-2.81-0.99-4.2-1.48c-3.7-1.33-5.23-3.46-4.89-6.71
			c0.3-3.06,2.52-5.23,6.17-5.73c2.91-0.39,5.58,0.25,7.75,2.72c-0.69,0.54-1.33,1.04-1.97,1.58c-1.73-2.17-3.95-2.67-6.47-1.88
			c-1.63,0.49-2.62,1.58-2.81,3.31c-0.2,1.68,0.44,2.96,1.93,3.7c1.09,0.54,2.22,0.94,3.36,1.38c0.94,0.39,1.97,0.64,2.86,1.09
			c2.02,0.99,3.41,2.42,3.5,4.84c0.15,2.57-0.84,4.54-3.01,5.92c-0.89,0.54-1.93,0.89-2.86,1.33
			C267.5,492.14,266.36,492.14,265.23,492.14z"/>
		<path class="st0" d="M541.42,339.5c25.23,0,45.76,20.44,45.76,45.56c0,25.27-20.39,45.81-45.61,45.86
			c-25.32,0.05-45.91-20.49-45.86-45.76C495.76,359.94,516.19,339.5,541.42,339.5z M558.7,385.36c0.15-9.18-7.31-16.98-16.49-17.13
			c-9.68-0.15-17.33,7.11-17.52,16.64c-0.2,9.53,7.36,17.23,16.88,17.33C550.9,402.29,558.5,394.79,558.7,385.36z"/>
		<path class="st0" d="M411.29,401.5c0,8.98,0,17.92,0,26.9c-0.15,0.05-0.3,0.15-0.49,0.15c-5.97-0.05-11.9,0.15-17.82-0.2
			c-13.72-0.79-23-8.15-27.35-21.18c-2.07-6.32-3.01-12.83-3.01-19.45c-0.1-28.63-0.05-57.31-0.05-85.94c0-0.25,0-0.44,0.05-0.84
			c10.86,0,21.72,0,32.73,0c0,0.54,0,1.14,0,1.73c0,27.3,0,54.6,0,81.9c0,2.12,0.05,4.34,0.44,6.42c1.09,6.22,4.84,9.58,11.26,10.17
			C408.43,401.31,409.86,401.41,411.29,401.5z"/>
		<path class="st0" d="M192.41,428.51c-10.91,0-21.72,0-32.63,0c0-42.95,0-85.8,0-128.69c10.86,0,21.67,0,32.63,0
			C192.41,342.66,192.41,385.51,192.41,428.51z"/>
		<path class="st0" d="M455.13,428.46c-10.86,0.25-21.28-3.65-27.05-14.51c-3.06-5.78-4.54-12-5.04-18.41
			c-0.39-4.89-0.54-9.82-0.54-14.71c-0.05-21.42,0-42.9,0-64.32c0-0.54,0-1.09,0-1.73c10.96,0,21.72,0,32.68,0
			C455.13,352.58,455.13,390.5,455.13,428.46z"/>
		<path class="st0" d="M261.13,428.61c-0.74,0-1.14,0-1.53,0c-12.44,0-24.83,0-37.27-0.05c-0.74,0-1.63-0.39-2.17-0.89
			c-5.97-6.07-11.9-12.24-17.77-18.41c-0.44-0.49-0.74-1.28-0.74-1.93c-0.05-15.9-0.05-31.84,0-47.74c0-0.69,0.35-1.58,0.79-2.07
			c4.54-4.99,9.13-9.92,13.72-14.86c0.35-0.39,0.99-0.74,1.53-0.74c13.08-0.05,26.16-0.05,39.2-0.05c0.15,0,0.25,0.05,0.64,0.1
			c-12.39,13.97-24.68,27.89-37.07,41.86C233.98,398.64,247.4,413.5,261.13,428.61z"/>
		<path class="st0" d="M109.33,341.87c10.81,0,21.52,0,32.38,0c0,28.88,0,57.71,0,86.63c-10.76,0-21.52,0-32.38,0
			C109.33,399.63,109.33,370.85,109.33,341.87z"/>
		<path class="st0" d="M332.76,420.81c-3.16-3.75-6.37-7.5-9.53-11.21c-4.49-5.33-9.03-10.61-13.53-15.99
			c-0.49-0.59-0.79-1.48-0.84-2.22c-0.1-3.46-0.05-6.91,0-10.42c0-0.49,0.35-1.18,0.74-1.38c11.45-5.58,22.95-11.11,34.46-16.64
			C354.52,380.03,351.51,406.39,332.76,420.81z"/>
		<path class="st0" d="M274.9,420.02c-16.04-12.93-21.37-36.92-11.01-56.18c0.3,0.1,0.59,0.15,0.84,0.3
			c11.26,5.08,22.56,10.22,33.81,15.3c0.89,0.39,1.23,0.84,1.23,1.88c-0.05,3.36,0,6.76-0.05,10.12c0,0.54-0.15,1.23-0.49,1.63
			c-7.95,8.89-15.94,17.77-23.94,26.61C275.15,419.82,275,419.92,274.9,420.02z"/>
		<path class="st0" d="M269.12,356.09c17.23-21.28,50.85-22.66,69.7-0.79c-0.35,0.2-0.64,0.39-0.94,0.54
			c-10.86,5.23-21.72,10.47-32.58,15.65c-0.54,0.25-1.38,0.35-1.93,0.1c-11.26-5.04-22.46-10.12-33.72-15.2
			C269.52,356.39,269.37,356.24,269.12,356.09z M297.61,354.21c0,3.65,3.06,6.71,6.71,6.71c3.6,0,6.61-2.96,6.66-6.61
			c0.05-3.65-2.96-6.71-6.66-6.76C300.67,347.5,297.61,350.56,297.61,354.21z"/>
		<path class="st0" d="M66.48,372.03c0-9.18,0-18.17,0.05-27.1c0-0.54,0.59-1.23,1.09-1.53c3.11-1.78,6.52-2.62,10.02-3.01
			c6.07-0.69,12.14,0.2,18.26,0.54c0,9.43,0,18.76,0,28.14c-3.31-0.2-6.52-0.39-9.72-0.64c-5.68-0.44-11.21-0.05-16.54,2.12
			C68.61,370.9,67.62,371.44,66.48,372.03z"/>
		<path class="st0" d="M282.5,425.25c7.26-8.05,14.41-15.99,21.67-24.09c6.96,8.24,13.87,16.39,20.78,24.53
			C313.95,432.16,296.28,433.1,282.5,425.25z"/>
		<path class="st0" d="M464.41,428.51c0-9.03,0-18.07,0-27.2c7.75,0,15.45,0,23.35,0c0,8.98,0,18.07,0,27.2
			C480.01,428.51,472.26,428.51,464.41,428.51z"/>
		<path class="st0" d="M125.62,329.83c-7.6,0.05-13.82-6.07-13.87-13.62c-0.05-7.5,6.17-13.77,13.72-13.82
			c7.55-0.05,13.77,6.12,13.82,13.67C139.3,323.66,133.23,329.78,125.62,329.83z"/>
		<path class="st0" d="M464.41,356.88c0-8.44,0-16.83,0-25.37c7.6,0,15.2,0,22.91,0c0,8.44,0,16.83,0,25.37
			C479.71,356.88,472.11,356.88,464.41,356.88z"/>
		<path class="st0" d="M484.45,468.74c0,7.6,0,15.15,0,22.71c-1.78,0.35-3.01,0.15-4.15-1.58c-3.8-5.78-7.85-11.4-11.8-17.08
			c-0.1-0.2-0.25-0.35-0.59-0.69c0,6.61,0,12.93,0,19.35c-0.84,0-1.53,0-2.37,0c0-7.55,0-15.11,0-22.71
			c1.78-0.35,3.01-0.1,4.15,1.58c3.9,5.87,8.1,11.55,12.34,17.62c0-6.61,0-12.88,0-19.25C482.92,468.74,483.66,468.74,484.45,468.74
			z"/>
		<path class="st0" d="M380.1,472.05c0,6.71,0,13.03,0,19.45c-0.79,0-1.48,0-2.27,0c0-7.55,0-15.11,0-22.66
			c2.32-0.54,2.67-0.44,3.95,1.43c4.1,5.82,8.19,11.6,12.49,17.72c0-6.57,0-12.83,0-19.2c0.89,0,1.58,0,2.42,0
			c0,7.55,0,15.11,0,22.71c-1.73,0.3-3.01,0.15-4.15-1.58c-3.7-5.58-7.6-11.01-11.4-16.49C380.84,473.03,380.59,472.69,380.1,472.05
			z"/>
		<path class="st0" d="M409.12,491.3c0-7.4,0-14.96,0-22.9c3.75,0.25,7.5,0.1,11.06,0.84c5.48,1.14,8.79,5.82,8.54,11.3
			c-0.2,5.53-3.9,9.97-9.48,10.71C415.98,491.64,412.58,491.3,409.12,491.3z M411.49,489.52c2.62-0.15,5.04-0.1,7.45-0.49
			c3.85-0.64,6.66-3.75,7.16-7.5c0.54-4.05-1.23-7.65-4.64-9.48c-3.16-1.68-6.61-1.23-9.97-1.23
			C411.49,477.08,411.49,483.15,411.49,489.52z"/>
		<path class="st0" d="M204.9,468.39c3.65,0.25,7.36,0.1,10.91,0.79c5.73,1.18,8.84,5.78,8.64,11.75
			c-0.15,5.08-4.05,9.53-9.48,10.27c-3.26,0.44-6.61,0.1-10.07,0.1C204.9,483.94,204.9,476.34,204.9,468.39z M207.22,470.61
			c0,6.47,0,12.54,0,18.71c2.02,0,3.95,0.15,5.87-0.05c4.99-0.39,8.39-3.8,8.79-8.59c0.35-4.49-2.47-8.54-7.01-9.48
			C212.45,470.71,209.89,470.81,207.22,470.61z"/>
		<path class="st0" d="M153.91,468.49c3.26,0.15,6.52,0.05,9.68,0.49c3.16,0.39,4.89,2.72,4.89,5.78c0,2.91-1.78,5.08-4.69,5.82
			c-0.3,0.1-0.64,0.1-1.14,0.2c2.17,3.6,4.29,7.11,6.47,10.71c-1.88,0.49-3.06,0.1-3.95-1.68c-1.28-2.57-2.96-4.99-4.34-7.5
			c-0.59-1.09-1.28-1.48-2.42-1.33c-0.69,0.1-1.38,0-2.17,0c0,3.55,0,7.01,0,10.56c-0.79,0-1.48,0-2.27,0
			C153.91,483.94,153.91,476.34,153.91,468.49z M156.18,478.91c2.42-0.15,4.64-0.15,6.86-0.54c1.88-0.35,2.76-1.73,2.76-3.5
			c0-1.78-0.84-3.21-2.57-3.5c-2.32-0.44-4.69-0.44-7.06-0.64C156.18,473.53,156.18,476.04,156.18,478.91z"/>
		<path class="st0" d="M368.05,491.49c-2.62,0.15-2.57,0.15-3.55-2.12c-0.54-1.28-0.84-2.96-1.83-3.65c-0.94-0.64-2.62-0.2-4-0.2
			c-2.17,0-4.29,0.05-6.47-0.05c-0.79,0-1.18,0.25-1.43,0.99c-0.39,1.04-0.84,2.07-1.28,3.11c-0.89,2.17-0.89,2.17-3.5,1.83
			c1.38-3.21,2.76-6.37,4.15-9.48c1.83-4.15,3.65-8.29,5.38-12.49c0.35-0.79,0.79-0.89,1.53-0.89c0.69,0,1.18,0.05,1.53,0.84
			c3.11,7.21,6.22,14.41,9.38,21.57C368,491.15,368,491.3,368.05,491.49z M361.98,483.35c-1.68-4-3.26-7.85-4.94-11.95
			c-1.73,4.15-3.31,8-4.94,11.95C355.46,483.35,358.57,483.35,361.98,483.35z"/>
		<path class="st0" d="M235.66,468.69c4.69,0,9.28,0,14.02,0c0,0.64,0,1.28,0,2.02c-3.8,0-7.65,0-11.65,0c0,2.62,0,5.13,0,7.75
			c3.55,0,7.16,0,10.86,0c0,0.74,0,1.38,0,2.22c-3.6,0-7.21,0-10.91,0c0,2.96,0,5.78,0,8.64c4.05,0,8,0,12.09,0
			c0,0.74,0,1.43,0,2.17c-4.79,0-9.53,0-14.41,0C235.66,483.94,235.66,476.34,235.66,468.69z"/>
		<path class="st0" d="M453.25,478.51c0,0.79,0,1.38,0,2.12c-3.65,0-7.21,0-10.96,0c0,2.96,0,5.78,0,8.69c4,0,7.95,0,12.04,0
			c0,0.74,0,1.38,0,2.12c-4.74,0-9.53,0-14.41,0c0-7.55,0-15.11,0-22.76c4.69,0,9.33,0,14.07,0c0,0.69,0,1.28,0,2.07
			c-3.9,0-7.8,0-11.75,0c0,2.62,0,5.13,0,7.75C445.95,478.51,449.5,478.51,453.25,478.51z"/>
		<path class="st0" d="M192.86,478.56c0,0.84,0,1.38,0,2.12c-3.65,0-7.26,0-11.01,0c0,2.96,0,5.73,0,8.69c4,0,8,0,12.09,0
			c0,0.79,0,1.43,0,2.12c-4.79,0-9.53,0-14.41,0c0-7.55,0-15.11,0-22.76c4.64,0,9.28,0,14.02,0c0,0.64,0,1.23,0,2.02
			c-3.85,0-7.75,0-11.7,0c0,2.62,0,5.13,0,7.8C185.55,478.56,189.15,478.56,192.86,478.56z"/>
		<path class="st0" d="M288.13,478.56c3.65,0,7.31,0,10.96,0c0,0.74,0,1.33,0,2.12c-3.6,0-7.26,0-10.96,0c0,2.96,0,5.73,0,8.64
			c3.95,0,7.95,0,12.09,0c0,0.79,0,1.38,0,2.17c-4.74,0-9.53,0-14.41,0c0-7.55,0-15.11,0-22.76c4.64,0,9.23,0,14.02,0
			c0.05,0.59,0.05,1.23,0.1,2.07c-4,0-7.85,0-11.8,0C288.13,473.38,288.13,475.9,288.13,478.56z"/>
		<path class="st0" d="M124.39,468.74c2.42-0.35,2.42-0.35,3.21,1.68c2.07,5.58,4.15,11.11,6.27,16.69c0.1,0.2,0.15,0.39,0.39,0.89
			c0.89-2.27,1.68-4.25,2.47-6.27c1.43-3.7,2.86-7.4,4.29-11.11c0.79-2.07,0.79-2.07,3.16-1.93c-0.05,0.25-0.05,0.49-0.15,0.74
			c-2.76,7.06-5.53,14.12-8.24,21.18c-0.3,0.79-0.74,1.04-1.58,0.99c-0.74-0.05-1.28-0.05-1.58-0.94
			c-2.67-7.16-5.38-14.27-8.1-21.37C124.49,469.13,124.44,468.94,124.39,468.74z"/>
		<path class="st0" d="M326.49,468.69c0.74,0,1.38,0,2.22,0c0,6.86,0,13.67,0,20.63c3.6,0,7.06,0,10.66,0c0,0.79,0,1.43,0,2.17
			c-4.25,0-8.49,0-12.88,0C326.49,483.94,326.49,476.34,326.49,468.69z"/>
		<path class="st0" d="M311.48,468.69c0.79,0,1.43,0,2.17,0c0,7.6,0,15.15,0,22.81c-0.69,0-1.38,0-2.17,0
			C311.48,483.94,311.48,476.34,311.48,468.69z"/>
	</g>
</g>
</svg>
